<?xml version="1.0" encoding="UTF-8" standalone="no"?>
<!DOCTYPE svg  PUBLIC '-//W3C//DTD SVG 1.1//EN'  'http://www.w3.org/Graphics/SVG/1.1/DTD/svg11.dtd'>
<svg style="shape-rendering:geometricPrecision;text-rendering:geometricPrecision;image-rendering:optimizeQuality" xmlns="http://www.w3.org/2000/svg" fill-rule="evenodd" xml:space="preserve" height="100mm" width="200mm" version="1.1" clip-rule="evenodd" xmlns:xlink="http://www.w3.org/1999/xlink" viewBox="0 0 20000 10000">
 <defs>
  <style type="text/css">
   <![CDATA[
    .str0 {stroke:#373435;stroke-width:20}
    .fil1 {fill:#4B4B4D}
    .fil2 {fill:#373435}
    .fil4 {fill:#ED3237}
    .fil0 {fill:#201E1E}
    .fil9 {fill:url(#id0)}
    .fil6 {fill:url(#id1)}
    .fil5 {fill:url(#id2)}
    .fil3 {fill:url(#id3)}
    .fil7 {fill:url(#id4)}
    .fil8 {fill:url(#id5)}
   ]]>
  </style>
  <linearGradient id="id0" y2="5400.8" gradientUnits="userSpaceOnUse" x2="1558.6" y1="4706.8" x1="1572.9">
   <stop stop-color="#BDBFC1" offset="0"/>
   <stop stop-color="#FEFEFE" offset="1"/>
  </linearGradient>
  <linearGradient id="id1" y2="3641.4" xlink:href="#id0" gradientUnits="userSpaceOnUse" x2="8973" y1="2032" x1="9015">
  </linearGradient>
  <linearGradient id="id2" y2="3292.7" xlink:href="#id0" gradientUnits="userSpaceOnUse" x2="13904" y1="1929.9" x1="13950">
  </linearGradient>
  <linearGradient id="id3" y2="7158" gradientUnits="userSpaceOnUse" x2="8373.2" y1="1330" x1="8832.3">
   <stop stop-color="#E6E7E8" offset="0"/>
   <stop stop-color="#F7F7F7" offset=".18039"/>
   <stop stop-color="#FEFEFE" offset=".76078"/>
   <stop stop-color="#E6E7E8" offset="1"/>
  </linearGradient>
  <radialGradient id="id4" gradientUnits="userSpaceOnUse" cy="6986.6" cx="16742" gradientTransform="matrix(-1.4142 .0033016 -.0033016 -1.4142 40442 16812)" r="1052.6">
   <stop stop-color="#BDBFC1" offset="0"/>
   <stop stop-color="#848688" offset="1"/>
  </radialGradient>
  <radialGradient id="id5" xlink:href="#id4" gradientUnits="userSpaceOnUse" cy="7166.2" cx="3675" gradientTransform="matrix(-1.4142 .0032761 -.0032761 -1.4142 8896 17289)" r="1052.6">
  </radialGradient>
 </defs>
 <g id="Camada_x0020_1">
  <g id="_225011403088">
   <path class="fil0" d="m11849 1987l-123 1522s-22 3-22 21c-1 19 0 34 0 34s-8 17 41 13 1790-123 1790-123l1834-115 643-28 59-4s96 6 118-64c22-69 58-318 58-318s-2-153-59-234c-58-82-82-137-162-222-80-86-292-263-292-263l-354-240s-149-136-653-212c-504-77-671-62-928-90-258-28-908-20-908-20l-663-3s-161 5-235 76c-73 72-99 100-120 162-20 61-24 108-24 108z"/>
   <path class="fil1" d="m5559 7314l-333-119-3081 328-91 3-381-691 418-918 357-218 85-67 373-284 726-142 761 151s568 340 584 349c16 10 495 608 495 608l184 700-9 281-88 19z"/>
   <polygon points="18481 7183 18237 7270 15201 7214 14846 7053 14722 6571 15159 5780 16585 5076 17286 5055 17787 5481 17817 5499 18798 6047 18616 6876" class="fil1 str0"/>
   <circle r="1889" class="fil2 str0" transform="matrix(-.82063 .0018997 .0018997 .82063 16742 6986.6)"/>
   <circle r="1889" class="fil2 str0" transform="matrix(-.82063 .0018997 .0018997 .82063 3675 7166.2)"/>
   <path class="fil3 str0" d="m17040 2010c358 283 716 567 1075 850l318 240s433 232 462 472c30 241 21 188 21 188l-7 9c-190 5-366 18-524 42-135 19-190 89-134 228l309 519s32 41 113 77l11 89c-10 32-32 70-51 95-51 72-122 126-204 158-54 22-108 43-161 65-35 14-69 29-103 43-35 14-71 29-105 44l-262 117-11 235c-1256-662-2698-13-2941 1572l-586 19c152-67 256-186 328-338 34-71 61-144 86-219 27-81 52-163 80-244 32-89 67-175 111-258 161-307 369-558 628-787 223-197 417-422 581-670 217-328 346-698 395-1088 16-125 43-247 66-371 36-184-4-360-105-516-165-258-480-502-728-676-358-253-814-346-1244-380-953-74-1910-98-2865-65l-16-2v-1h-15c-441 10-886 40-1324 92-250 30-500 67-748 116-226 44-453 98-672 169-221 72-437 170-645 274-197 99-391 206-584 313-213 117-423 241-624 378-174 117-343 244-495 387-247 233-457 515-510 858v4l-1266 136 80-152s166-304 205-347 18-69 134-102c117-33 325-107 671-291 346-185 1255-791 1564-951 310-159 561-331 1219-582 658-250 1407-321 1659-350 253-29 942-79 942-79s1817-74 2176-36 551 1 1477 105c927 104 657 60 657 60 178 32 357 64 535 96 107 19 215 37 322 55 0 0 272 77 417 82 144 6 249 24 308 36 59 13 92 23 51 80s-90 104-90 104-81 55 19 98zm-2194 5075c-15 69-31 138-46 207-16 37-58 55-124 56-2974 82-5947 174-8920 256-113 7-135-25-148-62-7-39-13-78-19-117-7-36 9-49 41-48 3072-94 6144-198 9216-292zm-3745-1003l-5051 344s-96 13-96 53c1 40 5 72 37 88 33 15 170 6 214 2 25-2 2678-173 4907-315l-11-172zm-177-1567l-208 18c-31-80-109-137-199-137l-172 1c-105 0-193 105-210 186l-74 6c-101 17-88 144 0 144l76-3c28 106 175 183 381 174 111-5 203-87 212-196l194-7c139-7 123-185 0-186zm4792-386l-179 14c-31-81-109-139-201-139h-172c-105 0-193 106-210 187l-101 8c-100 17-87 154 0 155l107-3c37 99 180 170 377 161 105-5 193-78 210-178l170-5c138-6 122-197-1-200zm-10771-513c56-16 63-1 34 36-101 168-201 336-302 504-16 26-45 41-86 46-810 98-1626 230-2448 392-355 64-703 175-1048 307-32 27-74 42-69 5 202-327 685-512 1224-669 882-252 1774-476 2695-621zm-3066 1597c207 166 427 321 632 488-396 366-631 860-576 1582 17 96 56 184 134 257-194-35-638-19-946-139-156-79-273-205-294-406 98 62 172 83 197 22 33-141 25-303-87-516-34-50-75-90-143-89-94 4-120-54-115-140 4-85 23-484 2-484s66-226 206-265c140-38 615-183 615-183s183-36 316-124c25-18 29-27 59-3zm9271-3173c-112 504-223 1007-335 1511-2 22-5 45-7 68 0 35-28 50-83 44-1289 103-2578 205-3867 308-10 17-36 25-79 25-186 13-373 26-559 40 63-237 93-329 231-533 2-27 4-53 6-80-5-34 11-61 41-84 67-35 134-71 202-106 45-37 90-73 135-110 74-54 147-108 221-162 11-8 22-17 33-25 17-8 30-6 40 2 813-566 1649-929 2506-1104 388-69 779-110 1170-137 347-19 379 143 345 343zm-386 1516h-7l-7-1-6 1c-1239 98-2500 232-3740 334 258-149 250-577 72-702l52-164 41-29c749-522 1577-922 2479-1093 383-73 772-112 1162-136 76-5 219-7 264 72 29 52 19 134 8 189-100 507-229 964-312 1474-2 19-5 37-6 55zm1085-1569l-123 1522s-22 3-22 21c-1 19 0 34 0 34s-8 17 41 13 1790-123 1790-123l1834-115 643-28 59-4s96 6 118-64c22-69 58-318 58-318s-2-153-59-234c-58-82-82-137-162-222-80-86-292-263-292-263l-354-240s-149-136-653-212c-504-77-671-62-928-90-258-28-908-20-908-20l-663-3s-161 5-235 76c-73 72-99 100-120 162-20 61-24 108-24 108zm69 6c3-29 12-64 21-93 19-57 61-92 103-133 38-38 135-55 187-56l662 2c52 0 105-1 158-1 115 0 231 1 346 3 130 2 267 4 396 18 53 6 106 10 159 14 102 6 204 11 306 20 155 13 308 32 460 55 162 25 337 62 488 125 36 16 99 45 130 71 2 2 5 4 7 6l351 238c55 46 110 93 163 141 41 36 83 74 120 113 36 38 65 76 93 120 21 32 41 64 63 95 31 44 45 135 47 190-8 54-17 108-26 161-8 44-16 99-29 140-4 13-37 16-49 16h-8l-58 4-643 28-1834 114c-1 0-1409 97-1735 120l122-1511zm2266 5081l-2939 97c0-13 0-27-1-40l-3-76c-11-269-23-538-33-808 1579-101 2920-187 2920-187s57-2 155-47 147-78 147-78 34-37 15-53-18-25-45-23c-26 2-37 1-37 1l-3161 215c-4-117-7-233-9-350-10-442-7-884 24-1325 19-264 41-527 72-789 67-565 177-1124 254-1687 13-91 25-181 35-272 6-54 9-108 14-162h2c954-32 1910-9 2861 66 424 34 876 125 1230 374 150 106 298 219 434 344 104 95 209 204 285 323 96 150 135 318 101 495-24 124-51 246-66 372-49 385-176 751-391 1075-162 246-355 469-575 664-262 231-473 485-635 795-45 85-81 172-113 262-28 82-53 164-81 246-24 73-51 145-84 215-74 158-184 278-350 338h-2l-1 1-23 14zm-8192-3030l1-6c53-331 259-604 498-829 151-142 319-269 491-385 200-136 410-259 622-376 193-107 386-213 583-312 206-104 421-202 641-273 218-71 443-124 668-168 247-48 496-85 746-115 423-50 851-80 1277-91l42-1c-4 53-7 107-14 160-76 656-211 1304-289 1959-31 263-52 527-71 791-28 389-34 780-28 1171-5 415 6 841 43 1284 4 93 8 187 11 280 1 13 1 26 1 39l-5126 168-1-4c-164-566-279-1154-298-1744-17-519 42-1031 200-1526l7-22h-4zm64 3297l-452 14c-35-2-50-28-47-75-167-1652-1724-2527-3035-1606-205-160-409-320-613-480-24-24-15-46 8-68 252-203 385-384 404-543 784-151 1570-276 2359-373l-9 1 8 4 4 2 4-1c422-45 844-91 1266-137-154 492-212 1e3 -195 1514 19 591 134 1180 298 1748zm5103-1772l3 156c2 126 6 251 10 377 9 250 19 501 30 751-37-443-48-869-43-1284zm7547-922c61 22 145 40 256 40 0 10 1 15 1 15s27 12 35 74c9 61 14 143 14 143s53 157 121 224c67 68 166 127 180 331 14 203 7 473-13 579s-32 237-32 237-14 73 15 142c28 70 45 82 12 133-32 51-333 462-333 462s-90 88-190 106c-100 19-291 50-291 50 5-27 11-55 16-82 56-184 58-363 25-538-97-499-348-837-705-1064l11-233 244-108c50-22 100-43 150-64 72-30 146-59 219-88 88-35 163-92 218-170 21-29 45-71 55-106l1-3-9-80z"/>
   <path class="fil0" d="m11150 2040c-112 504-223 1007-335 1511-2 22-5 45-7 68 0 35-28 50-83 44-1289 103-2578 205-3867 308-10 17-37 25-79 25-186 13-373 26-559 40 63-237 93-329 231-533 2-27 4-53 6-80-5-34 11-61 41-84 67-35 134-71 202-106 45-37 90-73 135-110 74-54 147-108 221-162 11-8 22-17 33-25 17-8 30-6 40 2 813-566 1649-929 2506-1104 388-69 779-110 1170-137 347-19 379 143 345 343z"/>
   <path class="fil4 str0" d="m18909 3769l-5 7s10 51 29 61c18 10 43 33 41 59-2 27 10 448 10 448v194s-14 76-20 109c-3 17-3 31-2 40-303-1-402-129-402-129l-309-519c-56-139-1-209 134-228 157-24 334-37 524-42z"/>
   <path class="fil5" d="m11918 1993c3-29 12-64 21-93 19-57 61-92 103-133 38-38 135-55 187-56l661 2c53 0 106-1 159-1 115 0 231 1 346 3 130 2 267 4 396 18 53 6 106 10 159 14 102 6 204 11 306 20 155 13 308 32 460 55 162 25 337 62 488 125 36 16 99 44 130 71 2 2 5 4 7 6l351 238c55 46 110 93 163 141 41 36 83 74 120 113 36 38 65 76 93 120 21 32 41 64 63 95 31 44 45 135 47 190-8 54-17 108-26 162-8 43-16 98-29 139-4 13-37 16-49 16h-8l-58 4-643 28-1834 114c-1 0-1409 97-1735 120l122-1511z"/>
   <path class="fil2" d="m11101 6082l-5051 344s-96 13-96 53c1 40 5 72 37 88 33 15 170 6 214 2 25-2 2678-173 4907-315l-11-172z"/>
   <path class="fil2" d="m14363 5860l-3170 216 11 172c1580-102 2924-188 2924-188s57-2 155-47 147-78 147-78 34-37 15-53-18-25-45-23c-26 2-37 1-37 1z"/>
   <path class="fil6" d="m10764 3556h-7l-7-1-6 1c-1239 98-2500 232-3740 334 258-149 250-577 72-702l52-164 41-29c749-522 1577-922 2479-1093 383-73 772-112 1162-136 76-5 219-7 264 72 29 52 19 134 8 189-100 507-229 964-312 1474-2 19-5 37-6 55z"/>
   <path class="fil7 str0" d="m16740 5934c-582 1-1052 474-1051 1055 2 581 474 1052 1055 1050 582-1 1052-473 1051-1055-2-581-474-1051-1055-1050z"/>
   <path class="fil8 str0" d="m3673 6114c-582 1-1052 473-1051 1055 2 581 474 1051 1055 1050 582-2 1052-474 1051-1055-2-582-474-1052-1055-1050z"/>
   <path class="fil2" d="m810 6438c34-10 74 27 118 89 72 150 115 292 90 416 7 58-18 77-75 59-14-33-32-71-51-110-44-46-51-99-48-154-17-84-25-145-29-196-2-35-4-69-5-104z"/>
   <path class="fil9 str0" d="m2298 4591c-68 267-497 677-750 722-187 61-373 122-559 183-69 26-111 8-117-63-10-142 60-270 132-399 16-44 48-72 94-86 394-175 797-279 1200-357z"/>
   <path class="fil1 str0" d="m15716 4129c-288 23-575 47-863 70-100 17-87 154 0 155 288-8 576-16 864-25 138-6 122-197-1-200z"/>
   <path class="fil1 str0" d="m10924 4515c-288 25-576 49-863 74-101 17-88 144 0 144 288-11 576-21 863-32 139-7 123-185 0-186z"/>
  </g>
 </g>
</svg>
