<?xml version="1.0" encoding="UTF-8" standalone="no"?>
<svg width="266.67" xmlns="http://www.w3.org/2000/svg" xmlns:xlink="http://www.w3.org/1999/xlink" height="333.33">
 <defs>
  <linearGradient id="svg_408" y2=".059129" xlink:href="#svg_516" x2=".69101" y1=".87279" x1=".19608"/>
  <linearGradient id="svg_357" y2=".5" x2="1.0132" y1=".5" x1=".72586">
   <stop id="svg_671" stop-color="#3e6f05" offset="0"/>
   <stop id="svg_670" stop-color="#3e6f05" stop-opacity="0" offset="1"/>
  </linearGradient>
  <linearGradient id="svg_362" y2=".13680" x2=".55814" y1=".063389" x1=".56574">
   <stop id="svg_669" stop-color="#fff" stop-opacity=".725" offset="0"/>
   <stop id="svg_668" stop-color="#fff" stop-opacity="0" offset="1"/>
  </linearGradient>
  <linearGradient id="svg_364" y2="0.532" x2=".53881" y1=".22796" x1=".93252">
   <stop id="svg_667" stop-color="#fff" offset="0"/>
   <stop id="svg_666" stop-color="#fff" stop-opacity="0" offset="1"/>
  </linearGradient>
  <linearGradient id="svg_508" y2=".45379" x2=".78042" y1=".5" x1=".94153">
   <stop id="svg_663" stop-color="#fff" stop-opacity=".725" offset="0"/>
   <stop id="svg_662" stop-color="#fff" stop-opacity="0" offset="1"/>
  </linearGradient>
  <linearGradient id="svg_516">
   <stop id="svg_659" stop-color="#fff" offset="0"/>
   <stop id="svg_658" stop-color="#b7230e" offset="1"/>
  </linearGradient>
  <linearGradient id="svg_549">
   <stop id="svg_673" stop-color="#55860d" offset="0"/>
   <stop id="svg_672" stop-color="#96c622" offset="1"/>
  </linearGradient>
  <radialGradient id="svg_349" xlink:href="#svg_549" gradientUnits="userSpaceOnUse" cy="172.51" cx="434.9" gradientTransform="matrix(.37320 -.38763 1.3265 1.1827 148.28 236.06)" r="20.494"/>
  <radialGradient id="svg_355" xlink:href="#svg_549" gradientUnits="userSpaceOnUse" cy="254.61" cx="536.46" gradientTransform="matrix(1.1449 -.031137 .0042270 .15543 -99.314 231.74)" r="80.141"/>
  <radialGradient id="svg_353" xlink:href="#svg_549" gradientUnits="userSpaceOnUse" cy="232.68" cx="445.26" gradientTransform="matrix(1.0286 -.051834 .0066596 .13215 -14.264 243.06)" r="78.92"/>
  <radialGradient id="svg_351" xlink:href="#svg_549" gradientUnits="userSpaceOnUse" cy="173.04" cx="426.44" gradientTransform="matrix(.43361 .31029 -.90432 1.2637 448.99 -78.326)" r="20.494"/>
  <radialGradient id="svg_359" xlink:href="#svg_549" gradientUnits="userSpaceOnUse" cy="173.04" cx="426.44" gradientTransform="matrix(.46955 -.25263 .73626 1.3685 154.72 112.03)" r="20.494"/>
  <radialGradient id="svg_510" gradientUnits="userSpaceOnUse" cy="654.56" cx="457.41" gradientTransform="matrix(1.0728 .19777 -.21697 1.177 79.371 -485.33)" r="121.08">
   <stop id="svg_661" stop-color="#9e230e" offset="0"/>
   <stop id="svg_660" stop-color="#9e230e" stop-opacity="0" offset="1"/>
  </radialGradient>
  <radialGradient id="svg_366" gradientUnits="userSpaceOnUse" cy="523.56" cx="484.7" gradientTransform="matrix(.99422 -.10738 .084597 .78325 -46.33 177.61)" r="121.08">
   <stop id="svg_665" stop-opacity=".44" offset="0"/>
   <stop id="svg_664" stop-opacity="0" offset="1"/>
  </radialGradient>
 </defs>
 <path id="path4555" fill="#dba986" d="m35.979 178.3c0.31169 0.53131 0.84311 1.5132 1.3438 2.5312 0.50064 1.0181 1.3544 2.6319 1.875 3.5938 0.52056 0.96184 1.4317 2.8975 2.0312 4.4364 0.59954 1.5389 1.1682 3.0248 1.2812 3.2812 0.11306 0.25648 0.091312 0.73322 0.5625 1.5 0.18668 0.5771 0.4282 1.3044 0.5625 1.625 0.13431 0.3206 0.72738 1.9485 1.3125 3.5938 0.58511 1.6452 1.1978 3.2512 1.375 3.5938 0.17715 0.34258 0.33872 0.74676 0.34375 0.875 0.005032 0.12825 0.27439 0.79465 0.59375 1.5 1.8687 4.1273 2.948 7.3813 5.5614 17.868 0.88654 3.5576 1.821 8.6691 2.2177 11.685 0.075901 0.57712 0.3242 2.5528 0.43859 3.3223 0.11438 0.7695 0.45633 2.6529 0.53342 4.0636 0.07708 1.4107 0.31628 4.6495 0.62391 7.3426 0.30763 2.6932 0.55278 6.3269 0.68642 8.1864 0.28806 4.0083 1.2739 5.4802 1.5022 6.0894 0.56233 1.5006 1.0672 3.1015 1.6832 3.5948 0.27954 0.22391 0.8465 0.86127 1.2812 1.4062 0.43475 0.54498 2.6632 2.3386 5 3.7812 0.95594 0.59015 3.1918 2.287 5.4375 3.375 0.13414 0.000244 1.5259 0.64755 3.2812 1.2812 2.4022 1.1643 3.2335 1.0333 5.5916 1.7155 0.89527 0.20792 2.6088 0.86359 3.25 1.0312 0.64122 0.16766 1.5874 0.48883 2.75 0.875 1.6281 0.38617 2.4988 0.58652 4.0938 1.2188 1.7446 0.40314 3.2348 1.0362 3.8438 1.0938 0.60891 0.057587 1.6926 0.29327 2.4375 0.53125 0.74491 0.23798 2.4188 0.62598 3.4375 0.71875 1.0187 0.27484 2.4994 0.53195 2.9375 0.59375 0.43805 0.061798 1.418 0.20837 2.1875 0.34375 1.8255 0.32114 7.5264 0.91412 10.531 1.0938 1.9907 0.11899 6.543 0.41242 16.281 0.53125 3.4344 0.041901 6.5971 0.32629 8.2144 0.16061 1.5098-0.15472 2.9644-0.2515 3.25-0.21875 0.28563 0.032715 0.76781-0.026367 1.0625-0.125 0.32318-0.10818 6.3598-0.84869 6.9688-0.90625 0.60892-0.057617 8.9538-2.3896 9.1562-2.5625 0.20248-0.17288 3.886-1.4483 4.7812-1.6562 2.9373-0.68219 2.9929-1.3506 5.7812-2 1.3074-0.6337 2.4909-1.156 2.625-1.1562 0.13414-0.000275 1.044-0.5036 2-1.0938 2.3368-1.4426 8.659-5.6425 9.0938-6.1875 0.43475-0.54501 1.0017-1.1824 1.2812-1.4062 0.61591-0.49335 1.6898-2.0943 2.2522-3.5948 0.22829-0.60916 1.0244-2.4605 1.3125-6.4688 0.13365-1.8596 0.47363-5.5881 0.78125-8.2812 0.30765-2.6932 0.64166-6.058 0.71875-7.4688 0.077087-1.4107 0.22937-3.1993 0.34375-3.9688s0.26784-1.8604 0.34375-2.4375c0.3967-3.0163 1.3311-8.2538 2.2177-11.811 2.6134-10.487 3.7876-14.279 5.6562-18.406 0.31935-0.70535 0.58872-1.403 0.59375-1.5312 0.005035-0.12824 0.1666-0.50118 0.34375-0.84375 0.17716-0.34258 0.78987-1.9798 1.375-3.625 0.58511-1.6452 1.1782-3.2419 1.3125-3.5625 0.13431-0.32062 0.40707-1.0479 0.59375-1.625s0.41818-1.2748 0.53125-1.5312c0.11305-0.2565 0.6817-1.711 1.2812-3.25 0.59953-1.539 1.542-3.6007 2.0625-4.5625 0.52055-0.96185 1.2483-2.386 1.7489-3.4041 0.50064-1.0181 1.1571-2.1608 1.4688-2.5312 0.31169-0.37042 0.5625-0.89377 0.5625-1.1875 0-0.51288 0.43814-1.4495-0.87064-1.7791-1.4564-0.36671-4.0924-0.34592-5.25 0.0625-1.28 0.45158-1.6732 0.78825-3.8125 3.1875-0.98863 1.1088-2.1483 2.1828-2.5625 2.375-0.59268 0.27504-1.4474 0.32986-3.9688 0.25-3.3012-0.10458-4.1893 0.014389-6.375 0.875-1.197 0.47133-2.0981 1.3481-4.2812 4.1562-1.3588 1.7478-2.0613 1.938-7.5312 1.9375-4.4868-0.000412-7.6408 0.35255-8.1562 0.71875-0.74925 0.29302-1.4186 0.93788-2.3125 1.8125-0.89394 0.87463-2.0705 1.9143-2.625 2.3125-0.96179 0.6907-1.0921 0.74553-2.8438 0.65625-1.0215-0.052063-3.0683-0.43308-4.625-0.84375-3.2069-0.84604-5.5281-0.97642-7.0312-0.375-0.51559 0.2063-0.53062 0.25417-1.0938 0.59375-0.98151 0.66138-1.5508 0.9848-2.9062 1.9375-2.7092 1.9042-3.6241 2.1758-6.0312 1.875-1.0722-0.13396-1.52-0.34039-2.8438-1.4062-0.86221-0.6942-1.9038-1.4454-2.3438-1.6562-0.74791-0.35846-0.89482-0.35809-2 0.03125-0.65015 0.22903-2.0662 0.95535-3.1562 1.5938-1.0901 0.6384-2.378 1.2932-2.875 1.4688-0.49704 0.17555-1.407 0.32141-2 0.3125-1.4432-0.021683-4.2982-1.2955-5.9688-2.6562-1.7609-1.4343-2.7272-1.8051-4.3125-1.6875-1.8663 0.13841-3.9022 0.5891-4.8438 1.0938-0.45196 0.24225-1.4099 0.54836-2.125 0.6875-0.71509 0.13914-1.569 0.3642-1.9062 0.46875-0.33719 0.10457-1.2102 0.082825-1.9375-0.03125-1.5043-0.23589-2.4136-0.91772-3.9375-2.9688-1.8835-2.5351-4.5001-2.977-9.625-1.625-1.5567 0.41068-3.6035 0.79169-4.625 0.84375-1.7516 0.089294-1.882 0.065704-2.8438-0.625-0.55452-0.39822-1.7311-1.4379-2.625-2.3125-0.89393-0.87463-1.9182-1.7116-2.2812-1.8438-1.4486-0.52708-3.6695-0.71916-8.1562-0.71875-5.47 0.000504-6.2037-0.18964-7.5625-1.9375-2.1831-2.8081-3.0842-3.6537-4.2812-4.125-2.1857-0.86061-3.0738-1.0108-6.375-0.90625-2.5213 0.07988-3.3761 0.05629-3.9688-0.21875-0.41423-0.19223-1.5426-1.2662-2.5312-2.375-2.1393-2.3992-2.5638-2.7359-3.8438-3.1875-1.1575-0.4084-3.7936-0.46045-5.25-0.09375-1.3088 0.32956-0.43217 2.5292-0.08831 3.0927z"/>
 <path id="path7721" fill="#c98134" d="m75.741 147.29c-3.0814 0.16051-7.7826 2.0042-11.375 4.6875-1.2898 0.96339-2.2966 1.9055-3.25 2.5625-0.67643 0.4661-1.6981 1.2394-2.2188 1.7188-2.0778 1.9127-3.4163 2.9433-5.8438 4.3438-1.3961 0.80542-3.0746 1.804-3.7188 2.2188-1.6843 1.0843-3.2915 1.5-4.3438 1.1562-2.2195-0.72507-3.2664-2.0785-3.2812-4.2188 0.08371-2.0621 0.29558-3.1154 0.46875-4.3438-0.04612 0.032913-0.92192 0.51483-0.9375 0.53125-1.5038 1.5851-4.8508 6.1484-5.25 6.6562-0.39923 0.5078-0.91177 1.2707-1.125 1.6875-0.21323 0.41681-1.0374 1.3563-1.375 2.0938-0.33762 0.73743-0.71719 1.4951-0.84375 1.6875-0.94197 1.4317-1.1843 4.1406-0.5 5.6875 0.26033 0.58853 0.9197 0.9969 1.3438 1.4688 0.88773 0.5619 3.9847 0.48309 5.1562 0.40625 1.8753-0.12946 3.9177 0.82362 6.4062 3.9062 0.47347 0.5865 1.3521 1.3495 1.9688 1.7188 1.118 0.66943 1.1373 0.6875 5.0938 0.6875h3.9688l1.5625 0.7812c0.9912 0.48761 1.7645 1.0469 2.0938 1.5312 1.0163 1.4949 3.1331 3.5874 4.1562 4.125 0.98923 0.51979 1.2608 0.56621 6.1562 0.59375 7.0388 0.039597 7.4227 0.12044 10.219 2.7812 2.7523 2.6192 3.5702 2.9872 6.1875 2.7812 1.0912-0.085861 2.1405-0.23702 2.3438-0.34375 0.93002-0.4885 4.6816-1.2244 6.1875-1.2188 2.2123 0.008316 3.1155 0.41959 4.4063 2.0625 0.5815 0.74017 1.6369 1.7769 2.3125 2.2812 1.1716 0.8747 1.294 0.89891 2.9688 0.90625 1.9295 0.008453 4.4102-0.38744 5.3438-0.875 1.1969-0.62508 2.4946-1.0539 3.75-1.2188 2.3876-0.31355 2.9601-0.12253 5.25 1.6562 0.76189 0.59184 2.1556 1.4451 3.125 1.9062 1.6867 0.80243 1.8577 0.83276 3.5312 0.6875 1.8109-0.15717 4.3497-1.1881 6.375-2.5625 1.4485-0.98297 2.4262-1.1608 3.3438-0.59375 0.42561 0.26305 0.33073 0.30276 0.78125 0.65625 0.33791 0.3311 1.9863 1.5935 3.0938 1.9688 1.6959 0.57469 2.7228 0.64294 4.0938 0.25 1.2858-0.36852 1.7495-0.63518 5.1562-2.875 2.6773-1.7602 3.1229-1.9308 5.0312-1.9375 1.5056-0.005295 5.2582 0.90671 6.1875 1.25 0.20325 0.10675 1.2526 0.2579 2.3438 0.34375 2.6173 0.20596 3.4352-0.16206 6.1875-2.7812 2.7961-2.6608 3.18-2.7729 10.219-2.8125 4.8988-0.027542 5.1641-0.041183 6.1562-0.5625 1.0828-0.56891 2.8574-2.3192 3.9062-3.8438 1.3402-1.948 3.7816-2.6692 8.5625-2.5625 2.9905 0.066757 3.0467 0.050095 4.2812-0.65625 0.68475-0.39175 1.6157-1.1893 2.0938-1.7812 1.4376-1.7801 2.6909-2.951 3.0312-3.2188 1.1052-0.70332 1.749-0.61481 3.2812-0.5625 2.1252 0.072556 4.4486-0.1389 5.5938-0.78125 0.50452-0.47183 0.36034-1.3889 0.62065-1.9774 0.37932-0.85745 0.37968-0.61946 0.28017-1.8663-0.13135-1.6458-1.1899-4.5528-2.1283-6.4106-1.8104-3.5843-4.6411-7.9247-5.125-8.4902-0.75893 0.56874-0.56746 0.15874-0.56793 0.15842-0.027634 0.63472 1.2743 0.58814 1.2016 1.2111-0.1422 1.2195-1.11 2.4172-1.2878 2.903-0.11314 0.38597-0.1135 1.9015-1.5872 2.847-0.78287 0.41708-2.2948 0.41733-3.9375 0-0.83742-0.21275-5.0357-2.1114-5.9375-2.75-0.90184-0.63861-9.2741-5.4281-11.781-6.5-0.59624-0.21822-3.4361-1.8967-5.6562-0.03125-0.58203 0.61671-1.0195 0.56398-1.3481 5.8405-0.24306 3.9031 0.035172 3.7972-1.3394 5.8158-1.2755 1.1886-4.4426 1.9865-6.625 0.84375-0.75182-0.39368-6.0982-3.8342-7-4.4062-0.90186-0.57204-3.7781-4.1121-4.3674-4.4462-5.4524-3.7255-8.2922-4.4247-11.164-4.8416-2.0783-0.66347-9.8052 0.55768-13.655 5.7714-1.5181 1.6572-2.7781 3.0402-4.7824 3.8815-3.0947 1.2991-5.7387 1.9539-7.6562 0.2598-2.0725-1.8254-3.3364-3.9114-4.4288-5.9062-2.5402-4.6387-3.7993-5.1002-7.9149-6.8125-3.7555-1.6455-7.9571-0.69154-9.8125-0.09375-1.1819 0.38078-3.2614 1.3315-4.6563 2.0938-7.1005 3.8801-8.3186 4.4737-10 5.0312-1.1457 0.37993-3.7274 0.9877-5.3125 0-1.68-1.5109-1.02-4.4144 0.29321-8.4698 0.7562-2.3352-0.30605-2.4878-1.5432-3.2489-0.56718-0.34894-1.4104-0.491-2.4375-0.4375z"/>
 <path id="path23123" fill="#d1a07f" d="m39.058 175.46c-0.98576-0.018219-2.0218 0.0354-2.75 0.21875-1.3088 0.32958-0.40636 2.5303-0.0625 3.0938 0.31169 0.53131 0.84311 1.5132 1.3438 2.5312 0.50064 1.0181 1.3544 2.6319 1.875 3.5938 0.52056 0.96184 1.4317 2.8985 2.0312 4.4375 0.59954 1.539 1.1682 3.0248 1.2812 3.2812 0.11306 0.2565 0.091309 0.73323 0.5625 1.5 0.18668 0.57712 0.4282 1.3044 0.5625 1.625 0.13431 0.32062 0.72738 1.9485 1.3125 3.5938 0.58511 1.6452 1.1978 3.2512 1.375 3.5938 0.17715 0.34259 0.33872 0.74676 0.34375 0.875 0.005032 0.12826 0.27439 0.79465 0.59375 1.5 1.8687 4.1273 2.9491 7.3879 5.5625 17.875 0.88654 3.5576 1.822 8.6713 2.2188 11.688 0.07589 0.57712 0.32312 2.543 0.4375 3.3125 0.11439 0.76947 0.45416 2.6518 0.53125 4.0625 0.07708 1.4107 0.31737 4.6506 0.625 7.3438s0.55386 6.3279 0.6875 8.1875c0.28807 4.0083 1.2717 5.4846 1.5 6.0938 0.56233 1.5006 1.0716 3.1004 1.6875 3.5938 0.27954 0.22391 0.8465 0.86127 1.2812 1.4062 0.43475 0.54501 2.6632 2.3386 5 3.7812 0.95596 0.59015 3.1918 2.287 5.4375 3.375 0.13414 0.000275 1.5259 0.64758 3.2812 1.2812 2.4022 1.1643 3.2045 1.0366 5.5625 1.7188 0.89526 0.20795 2.6088 0.86359 3.25 1.0312 0.64124 0.16766 1.5874 0.48883 2.75 0.875 1.6281 0.38617 2.4988 0.58652 4.0938 1.2188 1.7446 0.40314 3.2348 1.0362 3.8438 1.0938 0.60891 0.057617 1.6926 0.29327 2.4375 0.53125s2.4188 0.62598 3.4375 0.71875c1.0187 0.27484 2.4994 0.53195 2.9375 0.59375 0.43805 0.061798 1.418 0.2084 2.1875 0.34375 1.8255 0.32114 7.5264 0.91412 10.531 1.0938 1.9907 0.11899 6.543 0.41242 16.281 0.53125 3.4344 0.041931 6.6015 0.32196 8.2188 0.15625 1.5098-0.15469 2.9644-0.25146 3.25-0.21875 0.28563 0.032715 0.76781-0.026367 1.0625-0.125 0.32318-0.10815 6.3598-0.84866 6.9688-0.90625 0.60892-0.057587 8.9538-2.3896 9.1562-2.5625 0.20247-0.17285 3.886-1.4483 4.7812-1.6562 2.9373-0.68219 2.9929-1.3506 5.7812-2 1.3074-0.63367 2.4909-1.156 2.625-1.1562 0.13414-0.000244 1.044-0.5036 2-1.0938 2.3368-1.4426 8.659-5.6425 9.0938-6.1875 0.43475-0.54498 1.0017-1.1823 1.2812-1.4062 0.61591-0.49335 1.6877-2.0932 2.25-3.5938 0.22829-0.60916 1.0244-2.4605 1.3125-6.4688 0.13365-1.8596 0.47363-5.5881 0.78125-8.2812 0.30765-2.6932 0.64166-6.058 0.71875-7.4688 0.077087-1.4107 0.22937-3.1993 0.34375-3.9688 0.11438-0.76947 0.26784-1.8604 0.34375-2.4375 0.09227-0.70142 0.35696-1.8574 0.5-2.75-1.9314 1.8835-3.7664 3.8967-5.75 5.6875-18.471 17.808-46.677 25.593-70.969 15.781-29.648-11.246-44.595-41.161-54.062-69.594-0.069279-0.084061-0.14676-0.12614-0.21875-0.21875-2.1831-2.8081-3.0842-3.6537-4.2812-4.125-2.1857-0.8606-3.0738-1.0108-6.375-0.90625-2.5214 0.079895-3.3761 0.05629-3.9688-0.21875-0.41424-0.19222-1.5426-1.2662-2.5312-2.375-2.1393-2.3992-2.5638-2.7359-3.8438-3.1875-0.57878-0.20419-1.5142-0.29427-2.5-0.3125z"/>
 <path id="path1499" fill="#ededff" d="m125.97 108.71c-5.9242-0.034523-11.887 0.20238-14.629 0.71875-0.61961 0.11668-9.9656 1.6868-11.898 2.0312-5.1982 0.92649-8.6548 1.8062-14.661 3.8125-9.0836 3.0345-14.328 5.609-20.5 10.031-2.6119 1.8713-9.2528 8.2024-11.239 10.719-0.75911 0.96184-4.1958 5.4367-4.6148 6-0.41899 0.56332-1.4543 1.9442-2.2917 3.0625-2.2698 3.0313-3.313 6.5407-3.746 8.3928-0.3229 2.628-0.58181 3.5283-0.71187 6.7322 0.0149 2.1402 1.0768 3.4937 3.2963 4.2188 1.0522 0.34375 2.648-0.07193 4.3323-1.1562 0.64417-0.41472 2.3084-1.4133 3.7044-2.2188 2.4274-1.4004 3.7928-2.431 5.8706-4.3438 0.52069-0.47934 1.5211-1.2527 2.1975-1.7188 0.95342-0.65697 1.9751-1.5991 3.2649-2.5625 4.7898-3.5777 11.544-5.6458 13.813-4.25 1.2371 0.76112 1.2585 1.0085 0.5023 3.3438-1.3132 4.0554-0.95354 6.8686 0.72652 8.3795 1.585 0.9877 4.1867 0.37547 5.3324-0.004456 1.6814-0.55759 2.8826-1.1511 9.9831-5.0312 1.3948-0.76221 3.4957-1.713 4.6776-2.0938 1.8554-0.59779 6.0392-1.5517 9.7947 0.09375 4.1156 1.7122 4.6175 2.1738 7.1577 6.8125 1.0924 1.9948 3.1074 4.0808 5.1799 5.9062 1.9175 1.6941 4.5653 1.8928 7.66 0.59375 2.0042-0.84134 3.1909-1.6553 4.709-3.3125 3.85-5.2138 11.671-7.2959 13.749-6.6324 2.8717 0.41688 5.0342 1.3132 10.487 5.0387 0.58928 0.33409 4.1211 3.1155 5.0229 3.6875 0.90182 0.57202 6.2489 4.0126 7.0007 4.4062 2.1824 1.1427 5.3485 0.34488 6.624-0.84375 1.3746-2.0186 1.4836-1.6282 1.7266-5.5312 0.32861-5.2765 0.39116-5.5083 0.97321-6.125 2.2202-1.8654 5.0516-0.19589 5.6478 0.022324 2.5072 1.0719 10.874 5.8703 11.776 6.5089 0.90184 0.6386 5.1273 2.5372 5.9648 2.75 1.6427 0.41733 3.1413 0.41708 3.9242 0 1.4737-0.94556 2.053-2.1765 2.1661-2.5625 0.17781-0.48578 0.57986-1.968 0.72205-3.1875 0.45763-3.9246 0.000641-8.294-1.0988-10.438-0.17761-0.34631-3.0434-6.1145-4.5206-7.8438-0.60753-0.7112-4.7371-5.6174-6.5612-6.9688-0.95958-0.71091-2.9349-2.4347-4.3637-3.8125s-3.072-2.8554-3.673-3.2812c-0.60094-0.42586-2.2804-1.6252-3.7358-2.6562-3.6138-2.5601-4.3582-2.9995-5.7136-3.5938-0.64415-0.28244-2.4409-1.1294-3.987-1.875-5.6269-2.7139-9.2527-4.2906-11.333-4.875-0.57974-0.16288-1.5848-0.47688-2.2289-0.71875-1.7216-0.64645-7.0827-2.0135-8.5704-2.1875-0.70859-0.08287-12.724-2.3818-13.562-2.5625-2.5352-0.54713-8.4226-0.84048-14.347-0.875h-0.000008z"/>
 <g fill="#bd772c">
  <path id="path10838" d="m208.8 158.46c-0.31609 0.23688-0.43111 0.25238-0.5 0.25 0.14484 0.49963 1.1922 0.54874 1.125 1.125-0.1422 1.2195-1.1035 2.4205-1.2812 2.9062-0.11316 0.38599-0.12003 1.8982-1.5938 2.8438-0.39145 0.20854-0.97507 0.31248-1.6562 0.3125-0.009171 0-0.022049 0.000046-0.03125 0-3.6794 4.8645-12.583 3.5707-18.281 4.125-9.2088 2.0066-15.099 11.726-25.062 11.656-10.978 0.81728-22.089-0.67169-32.531-4.0938-13.688-4.4499-28.187-0.99437-41.312 3.6562-5.2554 1.6534-9.456 5.6543-14.875 7.125-0.54976 0.16908-1.0792 0.4095-1.625 0.59375 5.1728 0.06723 6.3353 0.30035 8.8438 2.6875 2.7523 2.6192 3.5702 2.9872 6.1875 2.7812 1.0912-0.085846 2.1405-0.237 2.3438-0.34375 0.93003-0.48848 4.6816-1.2244 6.1875-1.2188 2.2123 0.008331 3.1155 0.41959 4.4062 2.0625 0.58151 0.74017 1.6369 1.7769 2.3125 2.2812 1.1716 0.8747 1.294 0.89891 2.9688 0.90625 1.9295 0.008469 4.4102-0.38744 5.3438-0.875 1.1969-0.62508 2.4946-1.0539 3.75-1.2188 2.3876-0.31354 2.9601-0.12253 5.25 1.6562 0.76192 0.59186 2.1556 1.4451 3.125 1.9062 1.6867 0.80244 1.8577 0.83276 3.5312 0.6875 1.8109-0.15717 4.3497-1.1881 6.375-2.5625 1.4485-0.98296 2.4262-1.1608 3.3438-0.59375 0.4256 0.26306 0.33072 0.30276 0.78125 0.65625 0.33789 0.3311 1.9863 1.5935 3.0938 1.9688 1.6958 0.57469 2.7227 0.64294 4.0938 0.25 1.2858-0.3685 1.7495-0.63516 5.1562-2.875 2.6773-1.7602 3.1229-1.9308 5.0312-1.9375 1.5056-0.005295 5.2582 0.90672 6.1875 1.25 0.20323 0.10675 1.2526 0.2579 2.3438 0.34375 2.6173 0.20596 3.4352-0.16206 6.1875-2.7812 2.7961-2.6608 3.18-2.7729 10.219-2.8125 4.8987-0.027527 5.1641-0.041183 6.1562-0.5625 1.0828-0.56891 2.8574-2.3192 3.9062-3.8438 1.3402-1.948 3.7816-2.6692 8.5625-2.5625 2.9905 0.066772 3.0467 0.05011 4.2812-0.65625 0.68475-0.39175 1.6157-1.1892 2.0938-1.7812 1.4376-1.7801 2.6909-2.951 3.0312-3.2188 1.1052-0.70332 1.749-0.61481 3.2812-0.5625 2.1252 0.072571 4.4486-0.13888 5.5938-0.78125 0.50452-0.47183 0.36467-1.3802 0.625-1.9688 0.37932-0.85744 0.38077-0.62816 0.28125-1.875-0.13135-1.6458-1.1866-4.5485-2.125-6.4062-1.8105-3.5843-4.6411-7.9344-5.125-8.5zm-0.5 0.25c-0.011749-0.040497-0.095825-0.046143-0.09375-0.09375 0.000259 0.000198-0.002777 0.090439 0.09375 0.09375z"/>
  <path id="path14686" d="m42.677 155.31c-0.04612 0.032913-0.92192 0.51483-0.9375 0.53125-1.5038 1.5851-4.8508 6.1485-5.25 6.6562-0.39923 0.5078-0.91177 1.2707-1.125 1.6875-0.21323 0.41681-1.0374 1.3563-1.375 2.0938-0.33762 0.73743-0.71719 1.4951-0.84375 1.6875-0.94197 1.4317-1.1843 4.1406-0.5 5.6875 0.26033 0.58853 0.9197 0.99692 1.3438 1.4688 0.88774 0.5619 3.9847 0.48309 5.1562 0.40625 1.8753-0.12946 3.9177 0.82362 6.4062 3.9062 0.47347 0.5865 1.3521 1.3495 1.9688 1.7188 1.118 0.66943 1.1373 0.6875 5.0938 0.6875h3.9688l1.5625 0.7812c0.99121 0.48761 1.7645 1.0469 2.0938 1.5312 1.0163 1.4949 3.1331 3.5874 4.1563 4.125 0.54915 0.28854 1.1044 0.3942 2.125 0.46875-2.101-4.0553-4.2715-8.0305-8.3438-10.469-6.2713-2.8654-10.664-8.5446-13.438-14.875-1.5851-0.77983-2.5186-1.9337-2.5312-3.75 0.083714-2.062 0.29558-3.1154 0.46875-4.3438z"/>
 </g>
 <path id="path1338" fill="#835e36" d="m42.458 154.3c-0.059212 0.33108-0.71907 1.2706-1.5 2.0938-1.5038 1.5851-4.8508 6.1484-5.25 6.6562-0.39923 0.50778-0.91177 1.2707-1.125 1.6875-0.21323 0.41679-1.0374 1.3563-1.375 2.0938-0.33762 0.7374-0.71719 1.4951-0.84375 1.6875-0.94197 1.4317-1.1843 4.1406-0.5 5.6875 0.26033 0.58852 0.9197 0.9969 1.3438 1.4688 0.88774 0.56189 2.0624 2.249 2.4062 2.8125 0.31169 0.53131 0.84311 1.5132 1.3438 2.5312 0.50064 1.0181 1.3544 2.6319 1.875 3.5938 0.52056 0.96184 1.4317 2.9923 2.0312 4.5312 0.59954 1.5389 1.1682 3.0248 1.2812 3.2812 0.11306 0.25648 0.37582 0.9229 0.5625 1.5s0.4282 1.3044 0.5625 1.625c0.13431 0.3206 0.72738 1.9485 1.3125 3.5938 0.58511 1.6452 1.1978 3.2512 1.375 3.5938 0.17715 0.34258 0.33872 0.74675 0.34375 0.875 0.005032 0.12825 0.27439 0.79465 0.59375 1.5 1.8687 4.1273 3.0429 7.9504 5.6562 18.438 0.88654 3.5576 1.9158 8.8587 2.3125 11.875 0.075901 0.57709 0.22937 1.6993 0.34375 2.4688 0.11439 0.76947 0.26666 2.558 0.34375 3.9688 0.07708 1.4107 0.41112 4.7443 0.71875 7.4375s0.64761 6.4217 0.78125 8.2812c0.28807 4.0083 1.0842 5.8596 1.3125 6.4688 0.56233 1.5006 1.4466 3.0066 2.0625 3.5 0.27954 0.22391 0.8465 0.86127 1.2812 1.4062 0.43475 0.54498 2.6632 2.3386 5 3.7812 0.95595 0.59015 3.1918 2.287 5.4375 3.375 0.13414 0.000244 1.5259 0.64755 3.2812 1.2812 2.4022 1.1643 3.4232 1.3178 5.7812 2 0.89526 0.20792 2.6088 0.86359 3.25 1.0312 0.64123 0.16763 1.5874 0.48883 2.75 0.875 1.6281 0.38614 2.4988 0.58652 4.0938 1.2188 1.7446 0.40314 3.2348 1.0362 3.8438 1.0938 0.60891 0.057587 1.6926 0.29327 2.4375 0.53125s2.4188 0.62598 3.4375 0.71875c1.0187 0.27481 2.4994 0.53195 2.9375 0.59375 0.43805 0.061768 1.418 0.20837 2.1875 0.34375 1.8255 0.32114 7.5264 0.91412 10.531 1.0938 1.9907 0.11896 6.543 0.41242 16.281 0.53125 3.4344 0.041901 6.9765-0.05304 8.5938-0.21875 1.5098-0.15472 2.9644-0.25146 3.25-0.21875 0.28563 0.032715 0.76781-0.026367 1.0625-0.125 0.32318-0.10818 6.3598-0.84866 6.9688-0.90625 0.60892-0.057587 8.9538-2.3896 9.1562-2.5625 0.20247-0.17288 3.886-1.4483 4.7812-1.6562 2.9373-0.68219 2.9929-1.3506 5.7812-2 1.3074-0.6337 2.4909-1.156 2.625-1.1562 0.13414-0.000275 1.044-0.5036 2-1.0938 2.3368-1.4426 8.659-5.6425 9.0938-6.1875 0.43475-0.54501 1.0017-1.1823 1.2812-1.4062 0.61591-0.49335 1.5002-1.9994 2.0625-3.5 0.22829-0.60919 1.0244-2.4605 1.3125-6.4688 0.13364-1.8596 0.47363-5.5881 0.78125-8.2812 0.30763-2.6932 0.64166-6.058 0.71875-7.4688 0.077087-1.4107 0.22936-3.1993 0.34375-3.9688 0.11438-0.7695 0.26784-1.8604 0.34375-2.4375 0.3967-3.0163 1.426-8.3487 2.3125-11.906 2.6134-10.487 3.7876-14.279 5.6562-18.406 0.31937-0.70535 0.58872-1.403 0.59375-1.5312 0.005035-0.12825 0.1666-0.50118 0.34375-0.84375 0.17716-0.34259 0.78989-1.9798 1.375-3.625s1.1782-3.2419 1.3125-3.5625c0.13431-0.32063 0.40707-1.0479 0.59375-1.625s0.41818-1.2748 0.53125-1.5312c0.11307-0.2565 0.68172-1.711 1.2812-3.25 0.59953-1.539 1.542-3.6007 2.0625-4.5625 0.52055-0.96185 1.3431-2.5757 1.8438-3.5938 0.50064-1.0181 1.1571-2.1608 1.4688-2.5312 0.31169-0.37042 0.56248-0.89377 0.5625-1.1875 0-0.51289 0.91731-1.2014 2.0625-1.8438 0.5045-0.47186 0.73968-0.63023 1-1.2188 0.3793-0.85747 0.47452-1.3782 0.375-2.625-0.13135-1.6458-0.90535-4.1735-1.8438-6.0312-1.8105-3.5843-4.4536-8.372-4.9375-8.9375-0.1951-0.22801-0.42757 0.73975-0.125 1.3438 0.17577 0.35088 1.0995 2.03 2.0312 3.7188 2.0766 3.7638 2.3046 4.3661 2.9062 5.875 0.16328 0.39986 1.0903 3.6437 1.0938 4.8125 0.00206 0.69772-0.17426 1.1586-0.6875 1.7812-0.96481 1.1705-1.8162 1.4858-3.125 1.1562-1.4563-0.36671-4.0924-0.34593-5.25 0.0625-1.2799 0.45158-1.6732 0.78825-3.8125 3.1875-0.98862 1.1088-2.1483 2.1828-2.5625 2.375-0.59267 0.27504-1.4474 0.32986-3.9688 0.25-3.3012-0.10458-4.1893 0.014389-6.375 0.875-1.197 0.47131-2.0981 1.3481-4.2812 4.1562-1.3588 1.7478-2.0613 1.938-7.5312 1.9375-4.4868-0.000412-7.6408 0.35255-8.1562 0.71875-0.74925 0.293-1.4186 0.93787-2.3125 1.8125-0.89394 0.87463-2.0705 1.9143-2.625 2.3125-0.96179 0.6907-1.0921 0.74553-2.8438 0.65625-1.0215-0.052063-3.0683-0.43308-4.625-0.84375-3.2069-0.84605-5.5281-0.97644-7.0312-0.375-0.51558 0.2063-0.53061 0.25417-1.0938 0.59375-0.98151 0.66138-1.5508 0.98479-2.9062 1.9375-2.7092 1.9042-3.6241 2.1758-6.0312 1.875-1.0722-0.13397-1.52-0.34041-2.8438-1.4062-0.86221-0.69421-1.9038-1.4454-2.3438-1.6562-0.74789-0.35848-0.89482-0.35809-2 0.03125-0.65015 0.22902-2.0662 0.95534-3.1562 1.5938-1.0901 0.6384-2.378 1.2932-2.875 1.4688-0.49705 0.17554-1.407 0.3214-2 0.3125-1.4432-0.021698-4.2982-1.2956-5.9688-2.6562-1.7609-1.4343-2.7272-1.8051-4.3125-1.6875-1.8663 0.1384-3.9022 0.58908-4.8438 1.0938-0.45197 0.24223-1.4099 0.54834-2.125 0.6875-0.7151 0.13914-1.5691 0.36418-1.9062 0.46875-0.3372 0.10455-1.2102 0.082809-1.9375-0.03125-1.5043-0.2359-2.4136-0.91774-3.9375-2.9688-1.8835-2.5351-4.5001-2.977-9.625-1.625-1.5567 0.41068-3.6035 0.79169-4.625 0.84375-1.7516 0.089279-1.882 0.065704-2.8438-0.625-0.55453-0.39824-1.7311-1.4379-2.625-2.3125-0.89394-0.87463-1.9182-1.7117-2.2812-1.8438-1.4486-0.5271-3.6695-0.71918-8.1562-0.71875-5.47 0.000488-6.2037-0.18965-7.5625-1.9375-2.1831-2.8081-3.0842-3.6537-4.2812-4.125-2.1857-0.86061-3.0738-1.0108-6.375-0.90625-2.5214 0.07988-3.3761 0.05629-3.9688-0.21875-0.41424-0.19223-1.5426-1.2662-2.5312-2.375-2.1393-2.3993-2.5638-2.7359-3.8438-3.1875-1.1576-0.40842-3.7936-0.46046-5.25-0.09375-1.3088 0.32956-2.1602 0.014236-3.125-1.1562-0.51325-0.62266-0.68956-1.0835-0.6875-1.7812 0.003719-1.2621 0.49572-3.0078 1.2812-4.5625 0.3564-0.70535 0.72045-1.4326 0.8125-1.625 0.092041-0.19238 1.3877-1.8168 1.6562-2.125 0.26857-0.30818 0.87606-1.2412 1.375-2.0938s1.2041-1.7922 1.5625-2.0938c0.35845-0.30162 1.8409-2.3762 2.6875-3.3438l0.625-0.7188s0.11842-1.638 0.09375-1.5zm-4.0938 21.781c1.8753-0.12947 3.9177 0.82362 6.4062 3.9062 0.47347 0.58649 1.3521 1.3495 1.9688 1.7188 1.118 0.66942 1.1373 0.6875 5.0938 0.6875h3.9688l1.5625 0.7812c0.99121 0.4876 1.7645 1.0469 2.0938 1.5312 1.0163 1.4949 3.1331 3.5874 4.1562 4.125 0.98923 0.51978 1.2608 0.56621 6.1562 0.59375 7.0388 0.039581 7.4227 0.12042 10.219 2.7812 2.7523 2.6192 3.5702 2.9872 6.1875 2.7812 1.0912-0.085876 2.1405-0.23702 2.3438-0.34375 0.93002-0.48851 4.6816-1.2244 6.1875-1.2188 2.2123 0.008301 3.1155 0.41957 4.4062 2.0625 0.5815 0.74016 1.6369 1.7768 2.3125 2.2812 1.1716 0.87468 1.294 0.8989 2.9688 0.90625 1.9295 0.008438 4.4102-0.38745 5.3438-0.875 1.1969-0.62509 2.4946-1.0539 3.75-1.2188 2.3876-0.31357 2.9601-0.12254 5.25 1.6562 0.76191 0.59183 2.1556 1.4451 3.125 1.9062 1.6867 0.80241 1.8577 0.83275 3.5312 0.6875 1.8109-0.15718 4.3497-1.1881 6.375-2.5625 1.4485-0.98299 2.4262-1.1608 3.3438-0.59375 0.4256 0.26303 0.33073 0.30275 0.78125 0.65625 0.33789 0.33108 1.9863 1.5935 3.0938 1.9688 1.6958 0.57468 2.7227 0.64293 4.0938 0.25 1.2858-0.36853 1.7495-0.63518 5.1562-2.875 2.6773-1.7602 3.1229-1.9308 5.0312-1.9375 1.5056-0.00531 5.2582 0.90671 6.1875 1.25 0.20323 0.10674 1.2526 0.25789 2.3438 0.34375 2.6173 0.20595 3.4352-0.16208 6.1875-2.7812 2.7961-2.6608 3.18-2.7729 10.219-2.8125 4.8987-0.027557 5.1641-0.041199 6.1562-0.5625 1.0828-0.56892 2.8574-2.3192 3.9062-3.8438 1.3402-1.948 3.7816-2.6692 8.5625-2.5625 2.9905 0.066742 3.0467 0.050095 4.2812-0.65625 0.68474-0.39178 1.6157-1.1893 2.0938-1.7812 1.4376-1.7801 2.6909-2.951 3.0312-3.2188 1.1052-0.70335 1.749-0.61482 3.2812-0.5625 2.1252 0.07254 2.6189 0.4743 2.4688 1.0625-0.12396 0.43065-1.1286 2.3366-2.375 4.3125-1.1213 1.7776-3.2196 6.3348-4.125 8.9688-0.35268 1.026-0.77017 2.1778-0.9375 2.5625-0.16734 0.38474-0.83618 2.2029-1.5 4.0625-1.1032 3.0906-2.1524 5.7841-2.9375 7.5938-1.3851 3.1924-2.2264 5.591-3.375 9.5-1.2351 4.2033-3.0696 11.807-3.9688 16.469-0.94275 4.8882-0.9006 4.5768-1.1562 7.5312-0.76167 8.8028-0.95862 10.919-1.1562 12.188-0.12109 0.77722-0.30055 2.1944-0.375 3.1562-0.47688 6.1626-1.7253 10.582-2.625 11.844-1.1525 1.6156-4.0931 3.9285-6.0312 5.375-0.19539-0.95554 0.92117-12.506 1.1562-14.438 0.33624-1.8959 1.2399-8.7048 1.6562-12.5 0.12241-1.1157 0.29787-2.5314 0.40625-3.1562 0.10841-0.62482 0.3286-1.9871 0.46875-3.0312 0.14017-1.0442 0.40038-2.8268 0.59375-3.9375 0.19338-1.1108 0.44801-2.6413 0.5625-3.4062 0.1145-0.76492 0.36845-2.2408 0.5625-3.2812 0.35513-1.9042 0.46388-2.389 1.0312-5.1562 0.17046-0.8313 0.49098-2.5324 0.71875-3.7812 0.84328-4.6238 2.7064-12.008 3.9062-15.438 0.35994-1.0289 1.0054-2.9452 1.4375-4.25 0.86198-2.6027 1.1233-3.2964 2.625-7.3438 0.55908-1.5068 1.0788-3.014 1.1562-3.3438 0.077484-0.3297 1.1374-2.7712 1.375-3.6875 0.041107-0.15851-0.36531-1.4344-1.7812 2.3438-1.4741 3.9333-4.793 13.322-5.4062 15.25-0.23373 0.735-0.72444 2.1665-1.0625 3.1875s-0.81535 2.7039-1.0625 3.75c-1.0731 4.5422-1.746 7.5366-1.9375 8.5938-0.46876 2.5878-0.9108 5.0714-1.4062 7.6875-0.28896 1.5256-0.6414 3.5573-0.78125 4.5312-0.13983 0.97394-0.40369 2.6468-0.59375 3.6875-0.302 1.6535-0.71123 4.1781-1.4375 9.3438-0.32362 2.3015-0.62863 4.7754-0.96875 7.7188-0.1772 1.5335-0.6781 4.3816-0.8125 5.4062s-0.50188 4.4924-0.65625 5.0625c-0.27162 2.8448-0.30795 1.321-0.53125 4.6562-0.22223 3.3194-0.46275 6.3702-0.53125 6.5-0.000336 0.00061 0.00032 0.030762 0 0.03125-0.093704 0.062958-0.53455 0.39352-0.5625 0.40625-0.35268 0.16049-1.3683 0.78903-2.25 1.375-0.88174 0.58597-2.0335 1.1943-2.5625 1.375-0.52896 0.1807-1.5644 0.60342-2.3125 0.9375-0.86447 0.38602-2.9603 1.0329-3 0.96875-0.28435-0.4592 0.35281-12.503 0.5-14.438 0.24676-1.8635 0.82492-8.5325 1.0625-12.25 0.069839-1.0929 0.1711-2.511 0.25-3.125 0.078903-0.61401 0.22157-1.9446 0.3125-2.9688 0.090927-1.0241 0.29654-2.7522 0.4375-3.8438 0.14098-1.0916 0.32784-2.593 0.40625-3.3438 0.07843-0.75082 0.26132-2.1956 0.40625-3.2188 0.26524-1.8725 0.31332-2.3699 0.75-5.0938 0.1312-0.81824 0.39368-2.4909 0.5625-3.7188 0.62503-4.5459 2.1502-11.85 3.1875-15.25 0.31117-1.0201 0.84842-2.895 1.2188-4.1875 0.73866-2.5781 0.97147-3.2955 2.2812-7.3125 0.48762-1.4955 0.9381-2.9875 1-3.3125 0.06189-0.32504 1.0245-2.7207 1.2188-3.625 0.033615-0.15643-0.45076-1.4068-1.6875 2.3438-1.2876 3.9046-4.1656 13.216-4.6875 15.125-0.19893 0.72757-0.61658 2.1761-0.90625 3.1875s-0.67731 2.6562-0.875 3.6875c-0.85841 4.4778-1.3896 7.4294-1.5312 8.4688-0.34663 2.5441-0.69054 4.9895-1.0625 7.5625-0.21692 1.5005-0.46858 3.5131-0.5625 4.4688-0.093903 0.95566-0.29656 2.5705-0.4375 3.5938-0.22395 1.6257-0.48602 4.1196-0.96875 9.1875-0.21509 2.258-0.39232 4.6785-0.59375 7.5625-0.10494 1.5026-0.4764 4.3077-0.5625 5.3125-0.08609 1.0048-0.3101 4.4057-0.4375 4.9688-0.13763 2.7846-0.21492 1.2713-0.28125 4.5312-0.064713 3.1806-0.18665 6.0123-0.25 6.25-0.011978 0.003632-0.051285 0.027863-0.0625 0.03125-0.74149 0.22287-2.5689 0.84244-4.0938 1.3438-1.5249 0.50128-2.9194 0.90625-3.0938 0.90625-0.18466 0-1.375 0.34375-1.375 0.34375l-2.2188 0.5938c-0.29205 0.081543-0.65198 0.21112-1 0.3125-0.30969-0.57303-0.45648-12.093-0.4375-13.969 0.12312-1.8262 0.22723-8.3425 0.21875-11.969-0.002502-1.0661 0.055573-2.4297 0.09375-3.0312 0.038177-0.60156 0.070663-1.9056 0.09375-2.9062 0.023087-1.0007 0.087692-2.7118 0.15625-3.7812 0.068542-1.0695 0.15884-2.5469 0.1875-3.2812 0.028671-0.73438 0.11047-2.153 0.1875-3.1562 0.14099-1.8362 0.1817-2.2944 0.4375-4.9688 0.076843-0.80338 0.22514-2.4526 0.3125-3.6562 0.32338-4.4564 1.3459-11.629 2.1562-15 0.2431-1.0113 0.68462-2.9077 0.96875-4.1875 0.56674-2.5528 0.73972-3.2306 1.7812-7.2188 0.38776-1.4847 0.74097-2.9615 0.78125-3.2812 0.040283-0.31976 0.83462-2.7338 0.96875-3.625 0.023193-0.15414-0.51375-1.3182-1.5 2.4062-1.0268 3.8775-3.3241 13.112-3.7188 15-0.15044 0.71976-0.43402 2.1236-0.65625 3.125s-0.52712 2.6416-0.65625 3.6562c-0.56073 4.4057-0.89609 7.2937-0.96875 8.3125-0.17784 2.4938-0.36131 4.8827-0.5625 7.4062-0.11732 1.4716-0.21942 3.4406-0.25 4.375-0.030579 0.93436-0.11444 2.5282-0.1875 3.5312-0.11607 1.5937-0.22807 4.046-0.375 9-0.065475 2.2073-0.1145 4.5607-0.125 7.375-0.005463 1.4663-0.16795 4.206-0.1875 5.1875-0.019531 0.98154-0.035065 4.3198-0.125 4.875 0.046585 2.7136-0.11787 1.267 0.03125 4.4375 0.13641 2.8998 0.18643 5.1657 0.15625 5.6875-0.71127 0.21353-1.4558 0.43213-1.9688 0.59375-1.2396 0.39056-2.7292 0.65335-3.9688 0.71875-1.0901 0.057465-3.1814 0.28336-4.6562 0.46875-0.41838 0.052582-1.0538 0.047089-1.5938 0.09375-0.32416-0.5445-1.2457-12.604-1.3438-14.438 0.001923-1.7914-0.29967-8.1467-0.53125-11.688-0.068085-1.041-0.12341-2.3788-0.125-2.9688-0.001587-0.58995-0.022263-1.865-0.0625-2.8437-0.040253-0.97873-0.091583-2.6386-0.09375-3.6875-0.002182-1.0489-0.012604-2.4997-0.03125-3.2188-0.018631-0.71906-0.009796-2.109 0-3.0938 0.017929-1.8023 0.020691-2.278 0.09375-4.9062 0.021957-0.78955 0.024216-2.4126 0.03125-3.5938 0.026016-4.373 0.57889-11.437 1.125-14.781 0.16383-1.0034 0.43956-2.888 0.625-4.1562 0.3699-2.5298 0.49558-3.194 1.2188-7.1562 0.26923-1.4751 0.48222-2.9351 0.5-3.25 0.017746-0.31488 0.61768-2.746 0.6875-3.625 0.012085-0.15205-0.56201-1.2324-1.25 2.4688-0.71625 3.8532-2.2805 13.005-2.5312 14.875-0.095581 0.71266-0.2925 2.1014-0.4375 3.0938-0.14504 0.99237-0.28618 2.6258-0.34375 3.625-0.25002 4.3389-0.40149 7.1879-0.40625 8.1875-0.011642 2.4469-0.03096 4.8037-0.0625 7.2812-0.018387 1.4448 0.002075 3.3668 0.03125 4.2812 0.029175 0.91446 0.037354 2.4532 0.03125 3.4375-0.009689 1.564 0.049866 3.9649 0.21875 8.8125 0.075241 2.1598 0.17992 4.4697 0.34375 7.2188 0.085358 1.4323 0.082642 4.1339 0.125 5.0938 0.042343 0.95981 0.26817 4.2019 0.21875 4.75 0.21074 2.6471-0.053101 1.2259 0.28125 4.3125 0.33096 3.0552 0.56967 5.8718 0.53125 6.0312-3.4184 0.24017-7.8384 0.46616-9.0938 0.46875-1.6352 0.003357-6.6761-0.089203-7.125-0.09375h-0.8125l0.0312-3.7812c0.037018-2.479 0.21954-9.2019 0.1875-21.031-0.04142-15.292-0.048477-32.686-0.03125-43.25 0.006477-3.9756-0.045731-9.1595-0.125-11.5-0.1324-3.9096-0.20323-4.25-0.59375-4.25-0.40933 0-0.39949 1.2606-0.40625 33.875-0.008247 39.752-0.12096 44.071-0.15625 46.156l-0.0625 3.7812-7.2812-0.5312c-2.3948-0.16013-5.8986-0.65344-9.0312-1.125 0.009483-0.73492 0.11834-2.6382 0.34375-5.375 0.26215-3.1825 0.012878-1.742 0.15625-4.4688-0.070061-0.56143 0.04702-3.9187 0.0625-4.9062 0.015488-0.98758-0.046852-3.7443 0-5.2188 0.08992-2.8299 0.14291-5.2159 0.15625-7.4375 0.0299-4.986-0.003357-7.4248-0.0625-9.0312-0.037231-1.0111-0.065277-2.622-0.0625-3.5625 0.002769-0.94052-0.029007-2.9225-0.09375-4.4062-0.11103-2.5443-0.22376-4.9552-0.3125-7.4688-0.03627-1.0269-0.25307-3.9257-0.65625-8.375-0.092857-1.0247-0.34489-2.7041-0.53125-3.7188-0.18637-1.0147-0.43784-2.4585-0.5625-3.1875-0.32706-1.9125-2.2684-11.253-3.1562-15.188-0.85276-3.7793-1.4239-2.6246-1.4062-2.4688 0.10225 0.90073 0.81489 3.3334 0.84375 3.6562 0.02887 0.32291 0.32169 1.8374 0.65625 3.3438 0.8986 4.0463 1.0247 4.726 1.5 7.3125 0.23829 1.2967 0.60561 3.2247 0.8125 4.25 0.68957 3.4177 1.4921 10.664 1.6562 15.156 0.044373 1.2133 0.10811 2.8771 0.15625 3.6875 0.16023 2.6978 0.1746 3.1802 0.25 5.0312 0.041183 1.0114 0.091293 2.4168 0.09375 3.1562 0.002434 0.73935 0.032143 2.2348 0.0625 3.3125 0.03035 1.0777 0.043877 2.7744 0.03125 3.7812-0.012627 1.0069-0.016693 2.3313 0 2.9375 0.016693 0.60617 0.00927 1.9907-0.03125 3.0625-0.13784 3.6456-0.24541 10.191-0.1875 12.031-0.04763 1.8741-0.6068 13.231-0.9375 13.938-2.9935-0.46884-5.6403-0.93954-5.9688-1.0312-0.12825-0.035828-1.3473-0.29074-2.4062-0.5-1.3775-0.20926-1.5006-0.36704-2.5-0.625-0.81268-0.25195-2.0872-0.63565-3.375-1.0312-0.050392-0.18576 0.009354-3.0333 0.15625-6.1562 0.14914-3.1705-0.015343-1.7239 0.03125-4.4375-0.089943-0.55524-0.10545-3.8622-0.125-4.8438-0.019547-0.98154-0.18204-3.7212-0.1875-5.1875-0.010513-2.8143-0.059547-5.199-0.125-7.4062-0.14693-4.954-0.22768-7.375-0.34375-8.9688-0.073051-1.0031-0.15692-2.5969-0.1875-3.5312-0.030586-0.93439-0.16391-2.9033-0.28125-4.375-0.20119-2.5236-0.38467-4.9124-0.5625-7.4062-0.072647-1.0188-0.40802-3.9068-0.96875-8.3125-0.12914-1.0146-0.40276-2.6548-0.625-3.6562s-0.53707-2.4365-0.6875-3.1562c-0.39468-1.8884-2.6607-11.091-3.6875-14.969-0.98625-3.7245-1.5232-2.5916-1.5-2.4375 0.13412 0.89117 0.89722 3.3052 0.9375 3.625 0.040283 0.31976 0.39349 1.7965 0.78125 3.2812 1.0415 3.9881 1.2145 4.6972 1.7812 7.25 0.28413 1.2798 0.72564 3.1449 0.96875 4.1562 0.81033 3.371 1.8329 10.544 2.1562 15 0.087349 1.2036 0.23565 2.8529 0.3125 3.6562 0.25581 2.6743 0.29651 3.1638 0.4375 5 0.077026 1.0033 0.15884 2.4219 0.1875 3.1562 0.028648 0.73438 0.11895 2.2117 0.1875 3.2812s0.13316 2.7493 0.15625 3.75c0.023087 1.0006 0.086823 2.3359 0.125 2.9375 0.038177 0.60156 0.064987 1.9652 0.0625 3.0312-0.008476 3.6262 0.095619 10.111 0.21875 11.938 0.018806 1.86-0.1938 13.61-0.5 14.375-0.10069-0.030914-0.625-0.1875-0.625-0.1875l-1.375-0.3438c-0.88236 0-3.0064-0.71747-4.5312-1.2188-1.5249-0.50131-3.3835-1.0896-4.125-1.3125-0.30244-0.090912-1.1636-0.44965-1.8438-0.6875-0.064613-0.38782-0.18724-2.9468-0.25-6.0312-0.066322-3.26-0.1436-1.7779-0.28125-4.5625-0.1274-0.56302-0.3514-3.964-0.4375-4.9688-0.08609-1.0048-0.45755-3.8099-0.5625-5.3125-0.20143-2.884-0.37866-5.3045-0.59375-7.5625-0.48273-5.0679-0.7448-7.5618-0.96875-9.1875-0.14095-1.0232-0.34358-2.6381-0.4375-3.5938-0.09391-0.95569-0.34558-2.9683-0.5625-4.4688-0.37196-2.573-0.71587-5.0184-1.0625-7.5625-0.14162-1.0393-0.67285-3.991-1.5312-8.4688-0.19769-1.0312-0.58533-2.6762-0.875-3.6875-0.28968-1.0114-0.70732-2.4599-0.90625-3.1875-0.52193-1.9088-3.4-11.189-4.6875-15.094-1.2367-3.7506-1.7211-2.5314-1.6875-2.375 0.19429 0.90434 1.1569 3.3312 1.2188 3.6562 0.061897 0.32503 0.51237 1.7857 1 3.2812 1.3098 4.017 1.5426 4.7344 2.2812 7.3125 0.37032 1.2925 0.90757 3.1674 1.2188 4.1875 1.0372 3.4002 2.5625 10.704 3.1875 15.25 0.16882 1.2278 0.43131 2.9005 0.5625 3.7188 0.43668 2.7238 0.51598 3.2212 0.78125 5.0938 0.14493 1.0231 0.32782 2.4679 0.40625 3.2188 0.078407 0.75079 0.23404 2.2522 0.375 3.3438 0.14095 1.0916 0.34657 2.8196 0.4375 3.8438 0.090927 1.0241 0.23359 2.3547 0.3125 2.9688 0.078903 0.61401 0.18015 2.0321 0.25 3.125 0.23758 3.7175 0.81574 10.386 1.0625 12.25 0.14655 1.9258 0.77508 13.818 0.5 14.375-0.55926-0.21057-1.0132-0.34338-1.4375-0.53125-0.87653-0.38818-1.8669-0.79718-2.1875-0.875-0.32061-0.07785-1.2546-0.57504-2.0938-1.125-0.83917-0.54996-1.9135-1.1914-2.375-1.4375-0.19804-0.10562-1.2222-0.90137-1.9062-1.4062-0.097527-0.66589-0.30247-2.8117-0.5-5.75-0.2233-3.3215-0.22837-1.7919-0.5-4.625-0.15437-0.56775-0.5531-4.0421-0.6875-5.0625-0.13441-1.0204-0.63531-3.8478-0.8125-5.375-0.34012-2.9312-0.64515-5.4267-0.96875-7.7188-0.72628-5.1443-1.1042-7.6658-1.4062-9.3125-0.19007-1.0364-0.48516-2.6551-0.625-3.625-0.13984-0.96994-0.46106-3.0119-0.75-4.5312-0.49546-2.6054-0.96873-5.0791-1.4375-7.6562-0.19152-1.0528-0.86442-4.0079-1.9375-8.5312-0.24713-1.0417-0.72445-2.7332-1.0625-3.75-0.33806-1.0168-0.79751-2.4556-1.0312-3.1875-0.61325-1.9203-3.9634-11.27-5.4375-15.188-1.4159-3.7625-1.8224-2.4704-1.7812-2.3125 0.23763 0.91249 1.2975 3.3279 1.375 3.6562 0.07748 0.32837 0.59716 1.812 1.1562 3.3125 1.5017 4.0306 1.763 4.7205 2.625 7.3125 0.43214 1.2994 1.0776 3.2254 1.4375 4.25 1.1998 3.4152 3.063 10.77 3.9062 15.375 0.22777 1.2437 0.57956 2.9222 0.75 3.75 0.56738 2.7559 0.64486 3.2599 1 5.1562 0.19404 1.0361 0.448 2.5195 0.5625 3.2812 0.11449 0.76175 0.36912 2.2688 0.5625 3.375 0.19338 1.1061 0.48485 2.8664 0.625 3.9062 0.14015 1.0399 0.32911 2.409 0.4375 3.0312 0.10839 0.62222 0.28384 2.0451 0.40625 3.1562 0.41638 3.7794 1.32 10.549 1.6562 12.438 0.2233 1.8272 1.1848 11.771 1.125 13.656-1.9429-1.5299-4.0314-3.3236-4.9375-4.5938-0.88727-1.2438-2.1481-5.6811-2.625-11.844-0.074429-0.96185-0.25391-2.379-0.375-3.1562-0.19763-1.2685-0.39457-3.3847-1.1562-12.188-0.25476-2.9442-0.21577-2.6183-1.1562-7.5312-0.60905-3.1817-2.2466-10.306-2.8125-12.219-0.1138-0.38475-0.47112-1.7488-0.8125-3.0312-1.0084-3.788-2.2116-7.2451-3.7188-10.719-0.7851-1.8096-1.8343-4.4719-2.9375-7.5625-0.66382-1.8596-1.3327-3.709-1.5-4.0938-0.16733-0.38475-0.58483-1.5365-0.9375-2.5625-0.9054-2.6339-3.0037-7.1911-4.125-8.9688-1.2464-1.9759-2.183-3.8082-2.5-4.625-0.27884-0.89392 1.3285-0.79817 2.5-0.875z"/>
 <path id="path23915" stroke-linejoin="round" d="m144.09 114.68a22.666 4.8367 0 1 1 -0.00032 -0.026085" stroke-linecap="round" stroke-width="2.09" fill="#a8a8bd"/>
 <path id="path1463" fill="#c3c3d2" d="m125.97 108.71c-5.9242-0.034523-11.887 0.20238-14.629 0.71875-0.61961 0.11668-9.9656 1.6868-11.898 2.0312-5.1982 0.92649-8.6548 1.8062-14.661 3.8125-9.0836 3.0345-14.328 5.609-20.5 10.031-2.6119 1.8713-9.2528 8.2024-11.239 10.719-0.75911 0.96184-4.1958 5.4367-4.6148 6-0.41899 0.56332-1.4543 1.9442-2.2917 3.0625-2.2698 3.0313-3.313 6.5407-3.746 8.3928-0.3229 2.628-0.58181 3.5283-0.71187 6.7322 0.0149 2.1402 1.0768 3.4937 3.2963 4.2188 1.0522 0.34375 2.648-0.07193 4.3323-1.1562 0.64417-0.41472 2.3084-1.4133 3.7044-2.2188 2.4274-1.4004 3.7928-2.431 5.8706-4.3438 0.52069-0.47934 1.5211-1.2527 2.1975-1.7188 0.95342-0.65697 1.9751-1.5991 3.2649-2.5625 4.7898-3.5777 11.544-5.6458 13.813-4.25 1.2371 0.76112 1.2585 1.0085 0.50229 3.3438-1.3132 4.0554-0.95354 6.8686 0.72653 8.3795 1.585 0.9877 4.1866 0.37547 5.3324-0.004456 1.6814-0.55759 2.8826-1.1511 9.9831-5.0312 1.3948-0.76221 3.4957-1.713 4.6776-2.0938 1.8554-0.59779 6.0392-1.5517 9.7947 0.09375 4.1156 1.7122 4.6175 2.1738 7.1577 6.8125 1.0924 1.9948 3.1074 4.0808 5.1799 5.9062 1.9175 1.6941 4.5653 1.8928 7.66 0.59375 2.0043-0.84134 3.1909-1.6553 4.709-3.3125 3.85-5.2138 11.671-7.2959 13.749-6.6324 2.8717 0.41688 5.0342 1.3132 10.487 5.0387 0.58926 0.33409 4.1211 3.1155 5.0229 3.6875 0.90182 0.57202 6.2489 4.0126 7.0007 4.4062 2.1824 1.1427 5.3485 0.34488 6.624-0.84375 1.3746-2.0186 1.4836-1.6282 1.7266-5.5312 0.32861-5.2765 0.39116-5.5083 0.97321-6.125 2.2202-1.8654 5.0516-0.19589 5.6478 0.022324 2.5072 1.0719 10.874 5.8703 11.776 6.5089 0.90184 0.6386 5.1273 2.5372 5.9648 2.75 1.6427 0.41733 3.1413 0.41708 3.9242 0 1.4737-0.94556 2.053-2.1765 2.1661-2.5625 0.17781-0.48578 0.57986-1.968 0.72205-3.1875 0.45763-3.9246 0.000656-8.294-1.0988-10.438-0.17761-0.34631-3.0434-6.1145-4.5206-7.8438-0.60751-0.7112-4.7371-5.6174-6.5612-6.9688-0.95958-0.71091-2.9349-2.4347-4.3637-3.8125s-3.072-2.8554-3.673-3.2812c-0.60094-0.42586-2.2804-1.6252-3.7358-2.6562-3.6138-2.5601-4.3582-2.9995-5.7136-3.5938-0.64415-0.28244-2.4409-1.1294-3.987-1.875-5.6269-2.7139-9.2527-4.2906-11.333-4.875-0.57974-0.16288-1.5848-0.47688-2.2289-0.71875-1.7216-0.64645-7.0827-2.0135-8.5704-2.1875-0.70859-0.08287-12.724-2.3818-13.562-2.5625-2.5352-0.54713-8.4226-0.84048-14.347-0.875h-0.000008zm-4.1753 1.4375c3.2078-0.015991 11.562 0.26642 13.939 0.46876 3.0466 0.25929 7.5367 0.85226 9.6064 1.2812 0.90184 0.18692 6.6012 1.0949 7.7542 1.4688 2.8331 0.91859 7.2159 1.6364 7.9739 1.9062 0.758 0.26985 2.3863 0.82418 3.6102 1.2188 6.0265 1.9428 19.1 8.5986 22.226 11.312 0.57976 0.50326 1.4938 1.227 2.0092 1.5938 1.3191 0.93863 5.6331 5.3594 6.2159 5.9375 0.58279 0.57805 1.7502 1.5781 2.6056 2.25 1.3883 1.0904 4.8415 5.6008 5.8078 6.9688 2.9061 4.1144 3.7848 5.7582 4.4578 8.5938 0.41884 1.7645 0.45601 2.5555 0.34534 5-0.072067 1.5916-0.18256 4.3033-1.6728 6.0833-1.0351 0.80858-2.1397 0.5817-3.3187 0.26041-2.9562-0.8056-5.7154-2.5253-5.9647-2.75-0.6082-0.54806-10.603-5.6471-10.925-5.8125-0.32208-0.16544-3.7729-1.5207-4.9288-1.4375-1.5782 0.11363-3.0502 0.95314-3.6102 2.0312-0.38977 0.75028-0.84763 4.5802-0.84761 7.1562 0 2.1772-0.94214 3.1735-2.2783 4.2634-0.95006 0.77493-3.2394 0.51979-5.1934-0.82588-1.079-0.7431-4.1806-2.7568-5.1171-3.375-0.93654-0.6182-2.5154-1.601-3.1707-2.1875-5.8932-4.7917-12.471-7.1902-15.124-7.0684-5.049 0.2668-10.187 3.0575-13.244 7.0194-1.7056 2.5042-6.1416 4.1401-8.1273 3.869-2.5368-0.48086-6.3087-4.7923-7.3604-6.8512-2.1561-4.2212-4.1492-5.96-8.6646-7.4688-2.7569-0.92125-6.3416-0.8427-9.6064 0.21875-1.021 0.33194-2.9999 1.0559-3.9242 1.5938-0.92433 0.53784-2.5482 1.375-3.5788 1.875-1.0307 0.49997-5.6713 3.1574-7.4088 3.7812-1.7735 0.63683-3.3745 0.67462-4.1753 0.0625-0.75453-0.58702-0.9418-1.9223-0.94181-2.9688 0-0.9724 0.56865-3.1681 1.1616-4.4688 0.64331-1.4113 0.61783-2.3393-0.12558-3.2188-1.3658-1.6158-3.4347-2.0546-6.2787-1.3125-0.76786 0.20035-6.3144 2.0445-8.2878 3.2188-0.81316 0.48386-2.0314 1.3148-2.6998 1.875-0.66843 0.56018-1.9549 1.5962-2.8568 2.2812-0.90184 0.68504-2.0799 1.6622-2.6056 2.1562-0.52573 0.49402-4.1355 3.1267-4.709 3.5625-0.57349 0.43574-5.1545 2.8568-5.8078 3.0625-1.1345 0.3573-2.5678 0.28272-3.6416-0.99405-0.7423-1.7444-0.2065-4.4267 0.0284-6.1979 0.45382-3.5071 0.64702-3.8607 1.5691-6.0729 0.58816-1.1508 4.0003-6.2588 4.9638-7.2351 1.1342-1.1493 3.099-4.3037 3.5474-4.6562 1.9777-2.7287 6.821-7.1929 8.2878-8.4688 3.4003-2.9575 7.9389-5.9916 11.835-7.9375 2.6642-1.3305 7.1673-3.2306 9.1355-3.8438 0.96625-0.30103 3.1283-0.98646 4.8032-1.5312 4.1601-1.3533 6.406-1.8806 14.158-3.375 4.3971-0.84763 9.1257-1.4102 9.5122-1.4688 2.2754-0.34476 8.356-0.83236 10.642-0.84376z"/>
 <g stroke-linejoin="round" stroke="#6c4a19" stroke-linecap="round" stroke-width="2.09" fill="#b96408">
  <path id="path9260" d="m74.768 182.96a0.83029 1.235 0 1 1 -0.007248 0.006668"/>
  <path id="path9262" d="m83.379 166.8a0.83029 1.235 0 1 1 -0.007248 0.006668"/>
  <path id="path9276" d="m99.919 161.6a0.91285 1.4002 0 1 1 -0.00631 0.007553"/>
  <path id="path9278" d="m113.31 169.54a1.0209 1.6347 0 1 1 -0.004395 0.00882"/>
  <path id="path9280" d="m69.497 156.54a0.83029 1.235 0 1 1 -0.007263 0.006668"/>
  <path id="path9282" d="m93.797 175.45a0.87023 1.314 0 1 1 -0.006844 0.007095"/>
  <path id="path9284" d="m38.286 168.56a0.97026 1.5208 0 1 1 -0.005463 0.008194"/>
  <path id="path9286" d="m67.593 171.29a0.83029 1.235 0 1 1 -0.007271 0.006668"/>
  <path id="path9288" d="m53.396 166.37a0.83029 1.235 0 1 1 -0.007259 0.006668"/>
  <path id="path18510" d="m99.465 186a0.91969 1.4143 0 1 1 -0.006226 0.007645"/>
  <path id="path18516" d="m173.52 185.69a0.99017 1.5643 0 1 1 0.005096 0.008453"/>
  <path id="path18518" d="m166.79 171.97a0.99995 1.5862 0 1 1 0.004883 0.00856"/>
  <path id="path18520" d="m147.26 163.82a1.0389 1.6784 0 1 1 0.003891 0.009048"/>
  <path id="path18522" d="m135.4 171.12a1.0663 1.7545 0 1 1 0.002747 0.009476"/>
  <path id="path18524" d="m185.77 162.78a0.99995 1.5862 0 1 1 0.004883 0.00856"/>
  <path id="path18526" d="m154.46 178.17a1.006 1.5999 0 1 1 0.004761 0.008636"/>
  <path id="path18528" d="m208.92 170.92a1.0046 1.5967 0 1 1 0.004791 0.008621"/>
  <path id="path18532" d="m191.92 175.22a0.97144 1.5233 0 1 1 0.005447 0.008224"/>
  <path id="path18534" d="m146.36 188.73a1.0332 1.6642 0 1 1 0.004074 0.008987"/>
  <path id="path18536" d="m125.17 184.78a1.0339 1.8076 0 1 1 -0.00148 0.00975"/>
 </g>
 <path id="path20054" fill="#e1e1ff" d="m73.343 126.41c-10.418 1.4524-16.012 11.396-22.225 18.7-1.9151 3.1086-6.8769 12.144-1.2482 12.625 8.9413-5.2611 16.346-14.931 27.556-15.04 8.8228-2.1996 3.523 14.029 10.948 10.638 7.2943-5.446 18.008-9.2493 26.306-3.7094 4.8189 3.2598 6.851 10.455 13.104 11.414 5.8594-0.77438 8.099-8.0566 14.165-8.8865 7.3475-2.3303 15.615 0.27403 20.764 5.8854 3.3449 2.8982 10.97 8.0927 13.344 1.6472-0.69011-5.0848 3.7307-10.291 9.0697-8.4495 6.2354 1.3387 10.914 6.0662 16.603 8.5197 7.3696 2.4066 6.1082-8.4244 0.33168-9.4082-7.5186-5.2079-15.192-10.726-24.047-13.351-10.564-1.9588-18.84 6.7705-28.739 8.4972-10.492-0.51352-19.52-10.209-30.355-6.704-8.8246 3.5841-20.606 5.2651-28.037-2.07-4.2186-5.2864-10.083-11.414-17.539-10.308z"/>
 <g id="svg_340" transform="rotate(-47.141 119.18 88.43)">
  <g fill-rule="evenodd">
   <path id="svg_512" fill="#96c622" d="m118.82 47.573l3.5396-1.6848 0.3727 20.387 7.6382 2.6959s1.4902 1.8533 0.55888 1.5164c-0.93155-0.33692-20.865-1.011-20.865-1.011l8.5698-4.0435s2.9806-12.636 0.1862-17.86z"/>
   <g stroke-width="2.655">
    <path id="svg_511" fill="#d2230e" d="m133.56 70.268c-14.515 0.8068-23.468-4.6724-32.633-1.2655-4.0524 1.5064-8.5938 5.955-10.449 9.807-2.1745 4.5158-2.639 11.792-1.2861 16.609 1.558 5.5456 7.6966 11.092 11.253 15.66 4.2285 5.4306 8.4732 14.698 14.789 17.558 2.7167 1.2302 7.337 1.2426 9.9668-0.15822 5.3756-2.8634 8.5354-11.302 11.413-16.608 3.9212-7.2301 10.196-17.117 10.449-25.308 0.13753-4.4548-1.5077-11.041-4.8227-14.078-1.969-1.804-5.9945-2.364-8.6804-2.2146z"/>
    <path id="svg_509" fill="url(#svg_510)" d="m134.2 69.305c-14.515 0.80679-23.468-4.6724-32.633-1.2655-4.0524 1.5064-8.5938 5.955-10.449 9.8069-2.1745 4.5158-2.639 11.792-1.2858 16.609 1.558 5.5456 7.6963 11.093 11.253 15.66 4.2285 5.4305 8.4732 14.698 14.789 17.558 2.7167 1.2302 7.337 1.2426 9.9668-0.15822 5.3756-2.8634 8.5354-11.302 11.413-16.608 3.9212-7.2301 10.196-17.117 10.449-25.308 0.13756-4.4548-1.5074-11.041-4.8225-14.078-1.9692-1.804-5.9947-2.3639-8.6807-2.2145z"/>
    <path id="svg_507" opacity=".901" fill="url(#svg_508)" d="m133.76 71.362c-14.515 0.80679-23.468-4.6723-32.633-1.2655-4.0524 1.5064-8.5938 5.955-10.449 9.8069-2.1745 4.5158-2.639 11.792-1.2858 16.609 1.5578 5.5456 7.6963 11.092 11.253 15.66 4.2285 5.4308 8.4732 14.698 14.789 17.558 2.7167 1.2302 7.337 1.2426 9.9668-0.15822 5.3756-2.8634 8.5354-11.302 11.413-16.608 3.9212-7.23 10.196-17.117 10.449-25.308 0.13753-4.4548-1.5077-11.041-4.8227-14.078-1.969-1.8038-5.9945-2.3637-8.6804-2.2143z"/>
   </g>
  </g>
  <g stroke-linejoin="round" stroke-width="4" stroke-linecap="round">
   <g id="svg_500" transform="matrix(.13576 .031434 -.037980 .15883 110.72 -203.72)">
    <path id="svg_505" fill="url(#svg_408)" d="m500.5 1725.1c-2.24 0-4.217 1.0701-5.593 2.41-1.377 1.3301-2.338 2.9501-3.125 4.75-1.576 3.6-2.407 8.0601-2.407 12.97 0 4.9 0.83099 9.36 2.407 12.96 0.78702 1.7999 1.748 3.4199 3.125 4.75 1.376 1.34 3.353 2.4099 5.593 2.4099 2.241 0 4.218-1.07 5.594-2.4099 1.377-1.3301 2.338-2.9501 3.125-4.75 1.576-3.6001 2.406-8.0601 2.406-12.96 0-4.9099-0.83002-9.37-2.406-12.97-0.78699-1.7999-1.748-3.4199-3.125-4.75-1.376-1.34-3.353-2.41-5.594-2.41z"/>
    <path id="svg_504" fill="#d2230e" d="m507.41 1745.8a7 16 0 1 1 -14 0 7 16 0 1 1 14 0z"/>
    <path id="svg_503" fill="#e2973a" d="m506.58 1745a6.125 14 0 1 1 -12.25 0 6.125 14 0 1 1 12.25 0z"/>
    <path id="svg_502" fill="#fff" d="m503.11 1733.3a1.5644 2.3467 0 1 1 -3.129 1.5 1.5644 2.3467 0 1 1 3.129 -1.5z"/>
    <path id="svg_501" fill="#ce5c00" d="m499.79 1754.3a1.2842 2.5996 0 1 1 -2.568 2.6101 1.2842 2.5996 0 1 1 2.568 -2.6101z"/>
   </g>
   <g id="svg_493" transform="matrix(.17141 0 0 .16867 77.647 -183.12)">
    <path id="svg_498" fill="url(#svg_408)" d="m249.46 1655.8c-2.241 0-4.217 1.0702-5.594 2.4102-1.376 1.3297-2.337 2.9498-3.125 4.7499-1.575 3.5998-2.406 8.0598-2.406 12.96 0 4.9099 0.83099 9.3699 2.406 12.97 0.78804 1.8 1.749 3.42 3.125 4.7499 1.377 1.3297 3.353 2.4098 5.594 2.4098s4.217-1.0801 5.594-2.4098c1.376-1.3298 2.337-2.9498 3.125-4.7499 1.575-3.6001 2.406-8.0601 2.406-12.97 0-4.9002-0.83102-9.3601-2.406-12.96-0.78796-1.8-1.749-3.4202-3.125-4.7499-1.377-1.34-3.353-2.4102-5.594-2.4102z"/>
    <path id="svg_497" fill="#d2230e" d="m256.38 1676.5a7 16 0 1 1 -14 0 7 16 0 1 1 14 0z"/>
    <path id="svg_496" fill="#e2973a" d="m255.54 1675.6a6.125 14 0 1 1 -12.25 0 6.125 14 0 1 1 12.25 0z"/>
    <path id="svg_495" fill="#fff" d="m252.07 1664a1.5644 2.3467 0 1 1 -3.13 1.4999 1.5644 2.3467 0 1 1 3.13 -1.4999z"/>
    <path id="svg_494" fill="#ce5c00" d="m248.76 1684.9a1.2842 2.5996 0 1 1 -2.569 2.5998 1.2842 2.5996 0 1 1 2.569 -2.5998z"/>
   </g>
   <g id="svg_486" transform="matrix(.1375 -.027561 .032088 0.155 61.982 -162.38)">
    <path id="svg_491" fill="url(#svg_408)" d="m-65.066 1647.7c-2.241 0-4.217 1.075-5.594 2.406-1.376 1.332-2.337 2.95-3.125 4.75-1.5749 3.601-2.406 8.0649-2.406 12.969 0 4.9039 0.83106 9.3679 2.406 12.969 0.78802 1.7999 1.749 3.4139 3.125 4.754 1.377 1.33 3.353 2.3999 5.594 2.3999s4.217-1.07 5.5941-2.3999c1.376-1.3401 2.337-2.9541 3.125-4.754 1.575-3.6011 2.406-8.0651 2.406-12.969 0-4.904-0.831-9.368-2.406-12.969-0.78803-1.8-1.749-3.418-3.125-4.75-1.377-1.3311-3.353-2.406-5.5941-2.406z"/>
    <path id="svg_490" fill="#d2230e" d="m-58.152 1668.4a7 16 0 1 1 -14 0 7 16 0 1 1 14 0z"/>
    <path id="svg_489" fill="#e2973a" d="m-58.986 1667.5a6.125 14 0 1 1 -12.25 0 6.125 14 0 1 1 12.25 0z"/>
    <path id="svg_488" fill="#fff" d="m-62.458 1655.9a1.5644 2.3467 0 1 1 -3.13 1.496 1.5644 2.3467 0 1 1 3.13 -1.496z"/>
    <path id="svg_487" fill="#ce5c00" d="m-65.773 1676.8a1.2842 2.5996 0 1 1 -2.569 2.603 1.2842 2.5996 0 1 1 2.569 -2.603z"/>
   </g>
   <g id="svg_479" transform="matrix(.16559 -.030401 .032588 .15447 55.216 -150.14)">
    <path id="svg_484" fill="url(#svg_408)" d="m27.712 1659c-2.241 0-4.218 1.0751-5.594 2.406-1.376 1.332-2.337 2.9501-3.125 4.75-1.575 3.6011-2.406 8.0651-2.406 12.973 0 4.899 0.831 9.36 2.406 12.96 0.78796 1.8101 1.749 3.42 3.125 4.7501 1.376 1.34 3.353 2.4099 5.594 2.4099 2.24 0 4.217-1.07 5.593-2.4099 1.377-1.3301 2.338-2.9401 3.125-4.7501 1.576-3.6 2.407-8.0609 2.407-12.96 0-4.908-0.83099-9.372-2.407-12.973-0.78705-1.7999-1.748-3.418-3.125-4.75-1.376-1.3309-3.353-2.406-5.593-2.406z"/>
    <path id="svg_483" fill="#d2230e" d="m34.626 1679.7a7 16 0 1 1 -14 0 7 16 0 1 1 14 0z"/>
    <path id="svg_482" fill="#e2973a" d="m33.792 1678.8a6.125 14 0 1 1 -12.25 0 6.125 14 0 1 1 12.25 0z"/>
    <path id="svg_481" fill="#fff" d="m30.319 1667.2a1.5644 2.3467 0 1 1 -3.129 1.497 1.5644 2.3467 0 1 1 3.129 -1.497z"/>
    <path id="svg_480" fill="#ce5c00" d="m27.005 1688.1a1.2842 2.5996 0 1 1 -2.569 2.61 1.2842 2.5996 0 1 1 2.569 -2.61z"/>
   </g>
   <g id="svg_472" transform="matrix(.18774 0 0 .15228 69.462 -153.26)">
    <path id="svg_477" fill="url(#svg_408)" d="m272.47 1771.6c-2.24 0-4.217 1.0701-5.5941 2.4-1.376 1.33-2.337 2.95-3.125 4.75-1.575 3.6-2.4059 8.07-2.4059 12.97s0.83099 9.37 2.4059 12.97c0.78802 1.8 1.749 3.42 3.125 4.75 1.377 1.3301 3.354 2.41 5.5941 2.41 2.241 0 4.217-1.08 5.594-2.41s2.337-2.95 3.125-4.75c1.575-3.6 2.406-8.07 2.406-12.97s-0.83108-9.37-2.406-12.97c-0.78799-1.8-1.748-3.42-3.125-4.75s-3.353-2.4-5.594-2.4z"/>
    <path id="svg_476" fill="#d2230e" d="m279.38 1792.4a7 16 0 1 1 -14 0 7 16 0 1 1 14 0z"/>
    <path id="svg_475" fill="#e2973a" d="m278.55 1791.5a6.125 14 0 1 1 -12.251 0 6.125 14 0 1 1 12.251 0z"/>
    <path id="svg_474" fill="#fff" d="m275.08 1779.9a1.5644 2.3467 0 1 1 -3.129 1.5 1.5644 2.3467 0 1 1 3.129 -1.5z"/>
    <path id="svg_473" fill="#ce5c00" d="m271.76 1800.8a1.2842 2.5996 0 1 1 -2.568 2.6 1.2842 2.5996 0 1 1 2.568 -2.6z"/>
   </g>
   <g id="svg_465" transform="matrix(.15416 .030175 -.034704 .13404 116.26 -169.62)">
    <path id="svg_470" fill="url(#svg_408)" d="m524.23 1931.5c-2.241 0-4.217 1.0701-5.594 2.41-1.377 1.33-2.337 2.95-3.125 4.75-1.575 3.6-2.406 8.0599-2.406 12.96 0 4.91 0.83099 9.37 2.406 12.97 0.78802 1.7999 1.748 3.4199 3.125 4.75 1.377 1.34 3.353 2.4099 5.594 2.4099 2.24 0 4.217-1.07 5.593-2.4099 1.377-1.3301 2.338-2.9501 3.125-4.75 1.576-3.6001 2.407-8.0601 2.407-12.97 0-4.9-0.83099-9.36-2.407-12.96-0.78699-1.8-1.748-3.42-3.125-4.75-1.376-1.34-3.353-2.41-5.593-2.41z"/>
    <path id="svg_469" fill="#d2230e" d="m531.14 1952.2a7 16 0 1 1 -14 0 7 16 0 1 1 14 0z"/>
    <path id="svg_468" fill="#e2973a" d="m530.31 1951.4a6.125 14 0 1 1 -12.25 0 6.125 14 0 1 1 12.25 0z"/>
    <path id="svg_467" fill="#fff" d="m526.83 1939.7a1.5644 2.3467 0 1 1 -3.129 1.5001 1.5644 2.3467 0 1 1 3.129 -1.5001z"/>
    <path id="svg_466" fill="#ce5c00" d="m523.52 1960.7a1.2842 2.5996 0 1 1 -2.569 2.6 1.2842 2.5996 0 1 1 2.569 -2.6z"/>
   </g>
   <g id="svg_458" transform="matrix(.15143 .050806 -.046770 .13497 130.48 -194.34)">
    <path id="svg_463" fill="url(#svg_408)" d="m617.89 1885.4c-2.24 0-4.217 1.07-5.593 2.3999-1.377 1.3301-2.338 2.9501-3.125 4.75-1.576 3.6001-2.407 8.0701-2.407 12.97 0 4.9099 0.83099 9.37 2.407 12.97 0.78699 1.7999 1.748 3.42 3.125 4.75 1.376 1.33 3.353 2.41 5.593 2.41 2.241 0 4.218-1.0801 5.5939-2.41 1.3771-1.33 2.338-2.9501 3.125-4.75 1.576-3.6 2.406-8.0601 2.406-12.97 0-4.9-0.82996-9.37-2.406-12.97-0.78699-1.7999-1.7479-3.4199-3.125-4.75-1.3759-1.33-3.353-2.3999-5.5939-2.3999z"/>
    <path id="svg_462" fill="#d2230e" d="m624.8 1906.1a7 16 0 1 1 -14 0 7 16 0 1 1 14 0z"/>
    <path id="svg_461" fill="#e2973a" d="m623.97 1905.2a6.125 14 0 1 1 -12.25 0 6.125 14 0 1 1 12.25 0z"/>
    <path id="svg_460" fill="#fff" d="m620.5 1893.6a1.5644 2.3467 0 1 1 -3.129 1.5 1.5644 2.3467 0 1 1 3.129 -1.5z"/>
    <path id="svg_459" fill="#ce5c00" d="m617.18 1914.5a1.2842 2.5996 0 1 1 -2.569 2.6001 1.2842 2.5996 0 1 1 2.569 -2.6001z"/>
   </g>
   <g id="svg_451" transform="matrix(.17141 0 0 .15089 78.862 -190.82)">
    <path id="svg_456" fill="url(#svg_408)" d="m249.46 1782.6c-2.241 0-4.217 1.0701-5.594 2.4-1.376 1.3401-2.337 2.9501-3.125 4.75-1.575 3.61-2.406 8.0701-2.406 12.97 0 4.91 0.83099 9.3701 2.406 12.97 0.78804 1.7999 1.749 3.42 3.125 4.75 1.377 1.33 3.353 2.4099 5.594 2.4099s4.217-1.08 5.594-2.4099c1.376-1.33 2.337-2.9501 3.125-4.75 1.575-3.6 2.406-8.0601 2.406-12.97 0-4.8999-0.83102-9.36-2.406-12.97-0.78796-1.7999-1.749-3.4099-3.125-4.75-1.377-1.33-3.353-2.4-5.594-2.4z"/>
    <path id="svg_455" fill="#d2230e" d="m256.38 1803.3a7 16 0 1 1 -14 0 7 16 0 1 1 14 0z"/>
    <path id="svg_454" fill="#e2973a" d="m255.54 1802.4a6.125 14 0 1 1 -12.25 0 6.125 14 0 1 1 12.25 0z"/>
    <path id="svg_453" fill="#fff" d="m252.07 1790.8a1.5644 2.3467 0 1 1 -3.13 1.5 1.5644 2.3467 0 1 1 3.13 -1.5z"/>
    <path id="svg_452" fill="#ce5c00" d="m248.76 1811.7a1.2842 2.5996 0 1 1 -2.569 2.6001 1.2842 2.5996 0 1 1 2.569 -2.6001z"/>
   </g>
   <g id="svg_444" transform="matrix(.14475 0 0 .15744 72.191 -189.1)">
    <path id="svg_449" fill="url(#svg_408)" d="m200.74 1732.5c-2.24 0-4.217 1.0701-5.593 2.4002-1.377 1.33-2.338 2.95-3.125 4.7499-1.576 3.6001-2.407 8.0701-2.407 12.97 0 4.9099 0.83099 9.3701 2.407 12.97 0.78699 1.7999 1.748 3.4199 3.125 4.75 1.376 1.3301 3.353 2.4102 5.593 2.4102 2.241 0 4.218-1.0801 5.594-2.4102 1.377-1.3301 2.337-2.9501 3.125-4.75 1.576-3.6 2.406-8.0602 2.406-12.97 0-4.8999-0.83002-9.3699-2.406-12.97-0.78802-1.7999-1.748-3.4199-3.125-4.7499-1.376-1.3301-3.353-2.4002-5.594-2.4002z"/>
    <path id="svg_448" fill="#d2230e" d="m207.65 1753.3a7 16 0 1 1 -14 0 7 16 0 1 1 14 0z"/>
    <path id="svg_447" fill="#e2973a" d="m206.82 1752.4a6.125 14 0 1 1 -12.25 0 6.125 14 0 1 1 12.25 0z"/>
    <path id="svg_446" fill="#fff" d="m203.35 1740.8a1.5644 2.3467 0 1 1 -3.129 1.5 1.5644 2.3467 0 1 1 3.129 -1.5z"/>
    <path id="svg_445" fill="#ce5c00" d="m200.03 1761.7a1.2842 2.5996 0 1 1 -2.568 2.6001 1.2842 2.5996 0 1 1 2.568 -2.6001z"/>
   </g>
   <g id="svg_437" transform="matrix(.12575 -.031471 .043990 .13735 48.391 -153.02)">
    <path id="svg_442" fill="url(#svg_408)" d="m-247.86 1726.6c-2.24 0-4.217 1.075-5.594 2.406-1.376 1.332-2.337 2.95-3.124 4.75-1.576 3.601-2.407 8.0649-2.407 12.969 0 4.904 0.83096 9.368 2.407 12.969 0.787 1.8 1.748 3.418 3.124 4.75 1.377 1.3311 3.354 2.406 5.594 2.406 2.241 0 4.217-1.075 5.594-2.406 1.377-1.332 2.337-2.95 3.125-4.75 1.575-3.601 2.406-8.0649 2.406-12.969 0-4.904-0.83099-9.368-2.406-12.969-0.78802-1.8-1.748-3.418-3.125-4.75-1.377-1.3311-3.353-2.406-5.594-2.406z"/>
    <path id="svg_441" fill="#d2230e" d="m-240.95 1747.3a7 16 0 1 1 -14 0 7 16 0 1 1 14 0z"/>
    <path id="svg_440" fill="#e2973a" d="m-241.78 1746.4a6.125 14 0 1 1 -12.25 0 6.125 14 0 1 1 12.25 0z"/>
    <path id="svg_439" fill="#fff" d="m-245.25 1734.8a1.5644 2.3467 0 1 1 -3.129 1.496 1.5644 2.3467 0 1 1 3.129 -1.496z"/>
    <path id="svg_438" fill="#ce5c00" d="m-248.57 1755.7a1.2842 2.5996 0 1 1 -2.568 2.6019 1.2842 2.5996 0 1 1 2.568 -2.6019z"/>
   </g>
   <g id="svg_430" transform="matrix(.11808 -.031589 .036998 .13390 100.32 -164.52)">
    <path id="svg_435" fill="url(#svg_408)" d="m-239.13 1757.5c-2.24 0-4.217 1.074-5.593 2.406-1.377 1.3309-2.338 2.949-3.125 4.75-1.576 3.601-2.407 8.0649-2.407 12.969 0 4.904 0.83099 9.368 2.407 12.968 0.78705 1.8009 1.748 3.4189 3.125 4.75 1.376 1.3319 3.353 2.407 5.593 2.407 2.241 0 4.218-1.0751 5.594-2.407 1.377-1.3311 2.337-2.9491 3.125-4.75 1.576-3.6 2.406-8.064 2.406-12.968s-0.83002-9.368-2.406-12.969c-0.78796-1.801-1.748-3.4191-3.125-4.75-1.376-1.332-3.353-2.406-5.594-2.406z"/>
    <path id="svg_434" fill="#d2230e" d="m-232.22 1778.3a7 16 0 1 1 -14 0 7 16 0 1 1 14 0z"/>
    <path id="svg_433" fill="#e2973a" d="m-233.05 1777.4a6.125 14 0 1 1 -12.25 0 6.125 14 0 1 1 12.25 0z"/>
    <path id="svg_432" fill="#fff" d="m-236.53 1765.8a1.5644 2.3467 0 1 1 -3.129 1.497 1.5644 2.3467 0 1 1 3.129 -1.497z"/>
    <path id="svg_431" fill="#ce5c00" d="m-239.84 1786.7a1.2842 2.5996 0 1 1 -2.569 2.603 1.2842 2.5996 0 1 1 2.569 -2.603z"/>
   </g>
   <g id="svg_423" transform="matrix(0.119 -.034854 .041629 .15211 64.881 -144.7)">
    <path id="svg_428" fill="url(#svg_408)" d="m-225.26 1603.5c-2.241 0-4.217 1.0751-5.594 2.406-1.376 1.3311-2.337 2.9501-3.125 4.75-1.575 3.6011-2.406 8.0651-2.406 12.969 0 4.9031 0.83099 9.3676 2.406 12.968 0.78796 1.801 1.749 3.4191 3.125 4.75 1.377 1.332 3.353 2.406 5.594 2.406 2.24 0 4.217-1.074 5.594-2.406 1.376-1.3309 2.337-2.949 3.125-4.75 1.575-3.601 2.406-8.0654 2.406-12.968 0-4.9039-0.83099-9.3679-2.406-12.969-0.78802-1.7999-1.749-3.4189-3.125-4.75-1.377-1.3309-3.354-2.406-5.594-2.406z"/>
    <path id="svg_427" fill="#d2230e" d="m-218.34 1624.2a7 16 0 1 1 -14 0 7 16 0 1 1 14 0z"/>
    <path id="svg_426" fill="#e2973a" d="m-219.18 1623.4a6.125 14 0 1 1 -12.25 0 6.125 14 0 1 1 12.25 0z"/>
    <path id="svg_425" fill="#fff" d="m-222.65 1611.8a1.5644 2.3467 0 1 1 -3.13 1.498 1.5644 2.3467 0 1 1 3.13 -1.498z"/>
    <path id="svg_424" fill="#ce5c00" d="m-225.96 1632.7a1.2842 2.5996 0 1 1 -2.569 2.6019 1.2842 2.5996 0 1 1 2.569 -2.6019z"/>
   </g>
   <g id="svg_416" transform="matrix(0.105 .047182 -.045792 .13218 112.02 -204.7)">
    <path id="svg_421" fill="url(#svg_408)" d="m658.61 1901.3c-2.24 0-4.217 1.0789-5.593 2.4099-1.377 1.3291-2.338 2.9491-3.1249 4.75-1.576 3.6001-2.407 8.0691-2.407 12.97 0 4.8999 0.83099 9.37 2.407 12.969 0.78699 1.8012 1.748 3.4211 3.1249 4.75 1.376 1.3311 3.353 2.4011 5.593 2.4011 2.241 0 4.218-1.0701 5.5941-2.4011 1.377-1.3289 2.337-2.9488 3.1249-4.75 1.575-3.5989 2.406-8.069 2.406-12.969 0-4.901-0.83099-9.37-2.406-12.97-0.78796-1.8009-1.748-3.4209-3.1249-4.75-1.376-1.3311-3.353-2.4099-5.5941-2.4099z"/>
    <path id="svg_420" fill="#d2230e" d="m665.53 1922a7 16 0 1 1 -14 0 7 16 0 1 1 14 0z"/>
    <path id="svg_419" fill="#e2973a" d="m664.69 1921.1a6.125 14 0 1 1 -12.25 0 6.125 14 0 1 1 12.25 0z"/>
    <path id="svg_418" fill="#fff" d="m661.22 1909.5a1.5644 2.3467 0 1 1 -3.129 1.5 1.5644 2.3467 0 1 1 3.129 -1.5z"/>
    <path id="svg_417" fill="#ce5c00" d="m657.91 1930.4a1.2842 2.5996 0 1 1 -2.568 2.6001 1.2842 2.5996 0 1 1 2.568 -2.6001z"/>
   </g>
   <g id="svg_409" transform="matrix(.099987 .037261 -.032086 .15422 157.32 -203.42)">
    <path id="svg_414" fill="url(#svg_408)" d="m443.68 1773.6c-2.24 0-4.217 1.0701-5.594 2.4-1.376 1.33-2.337 2.95-3.125 4.75-1.575 3.6-2.406 8.07-2.406 12.97s0.83099 9.37 2.406 12.97c0.78799 1.8 1.749 3.42 3.125 4.75 1.377 1.3301 3.354 2.41 5.594 2.41 2.241 0 4.217-1.08 5.594-2.41 1.376-1.33 2.337-2.95 3.125-4.75 1.575-3.6 2.406-8.07 2.406-12.97s-0.83099-9.37-2.406-12.97c-0.78799-1.8-1.749-3.42-3.125-4.75-1.377-1.33-3.353-2.4-5.594-2.4z"/>
    <path id="svg_413" fill="#d2230e" d="m450.59 1794.3a7 16 0 1 1 -14 0 7 16 0 1 1 14 0z"/>
    <path id="svg_412" fill="#e2973a" d="m449.76 1793.4a6.125 14 0 1 1 -12.25 0 6.125 14 0 1 1 12.25 0z"/>
    <path id="svg_411" fill="#fff" d="m446.29 1781.8a1.5644 2.3467 0 1 1 -3.13 1.5 1.5644 2.3467 0 1 1 3.13 -1.5z"/>
    <path id="svg_410" fill="#ce5c00" d="m442.97 1802.7a1.2842 2.5996 0 1 1 -2.569 2.6 1.2842 2.5996 0 1 1 2.569 -2.6z"/>
   </g>
   <g id="svg_402" transform="matrix(.14358 .057955 -.052775 .14165 134.09 -179.36)">
    <path id="svg_407" fill="url(#svg_408)" d="m648.95 1805.8c-2.24 0-4.217 1.0701-5.594 2.4-1.376 1.34-2.337 2.9501-3.125 4.75-1.575 3.6-2.406 8.0701-2.406 12.97 0 4.91 0.83099 9.37 2.406 12.97 0.78796 1.7999 1.749 3.4199 3.125 4.75 1.377 1.33 3.354 2.4099 5.594 2.4099 2.241 0 4.217-1.08 5.594-2.4099 1.376-1.3301 2.337-2.9501 3.125-4.75 1.575-3.6001 2.406-8.0601 2.406-12.97 0-4.8999-0.83099-9.37-2.406-12.97-0.78796-1.7999-1.749-3.41-3.125-4.75-1.377-1.33-3.353-2.4-5.594-2.4z"/>
    <path id="svg_406" fill="#d2230e" d="m655.86 1826.6a7 16 0 1 1 -14 0 7 16 0 1 1 14 0z"/>
    <path id="svg_405" fill="#e2973a" d="m655.03 1825.7a6.125 14 0 1 1 -12.25 0 6.125 14 0 1 1 12.25 0z"/>
    <path id="svg_404" fill="#fff" d="m651.56 1814.1a1.5644 2.3467 0 1 1 -3.13 1.5 1.5644 2.3467 0 1 1 3.13 -1.5z"/>
    <path id="svg_403" fill="#ce5c00" d="m648.24 1835a1.2842 2.5996 0 1 1 -2.569 2.6 1.2842 2.5996 0 1 1 2.569 -2.6z"/>
   </g>
   <g id="svg_395" transform="matrix(.12550 .042106 -.038761 .11186 140.85 -167.2)">
    <path id="svg_400" fill="url(#svg_408)" d="m639.35 2155.2c-2.24 0-4.217 1.0798-5.593 2.4099-1.377 1.3301-2.338 2.95-3.1251 4.75-1.576 3.6001-2.407 8.0601-2.407 12.97 0 4.8999 0.83099 9.3701 2.407 12.97 0.78705 1.8 1.748 3.4202 3.1251 4.75 1.3759 1.3301 3.353 2.4002 5.593 2.4002 2.241 0 4.218-1.0701 5.594-2.4002 1.377-1.3298 2.338-2.95 3.125-4.75 1.576-3.5998 2.406-8.0701 2.406-12.97 0-4.9099-0.82996-9.3699-2.406-12.97-0.78699-1.8-1.748-3.4199-3.125-4.75-1.376-1.3301-3.353-2.4099-5.594-2.4099z"/>
    <path id="svg_399" fill="#d2230e" d="m646.27 2175.9a7 16 0 1 1 -14 0 7 16 0 1 1 14 0z"/>
    <path id="svg_398" fill="#e2973a" d="m645.43 2175.1a6.125 14 0 1 1 -12.25 0 6.125 14 0 1 1 12.25 0z"/>
    <path id="svg_397" fill="#fff" d="m641.96 2163.5a1.5644 2.3467 0 1 1 -3.129 1.49 1.5644 2.3467 0 1 1 3.129 -1.49z"/>
    <path id="svg_396" fill="#ce5c00" d="m638.65 2184.4a1.2842 2.5996 0 1 1 -2.568 2.6001 1.2842 2.5996 0 1 1 2.568 -2.6001z"/>
   </g>
   <g id="svg_388" transform="matrix(.090573 .06232 -.075299 .10596 153.29 -199.11)">
    <path id="svg_393" fill="url(#svg_408)" d="m1134.4 1927.9c-2.2405 0-4.2172 1.08-5.5939 2.41-1.3763 1.33-2.337 2.95-3.1249 4.75-1.5754 3.6-2.4062 8.0599-2.4062 12.97 0 4.9 0.83081 9.37 2.4062 12.97 0.78784 1.8 1.7485 3.42 3.1249 4.75 1.3767 1.3301 3.3534 2.4 5.5939 2.4 2.2406 0 4.2173-1.07 5.5938-2.4s2.3374-2.95 3.1251-4.75c1.5753-3.6 2.4061-8.07 2.4061-12.97 0-4.91-0.83081-9.37-2.4061-12.97-0.78772-1.8-1.7487-3.42-3.1251-4.75-1.3765-1.3301-3.3532-2.41-5.5938-2.41z"/>
    <path id="svg_392" fill="#d2230e" d="m1141.3 1948.6a7 16 0 1 1 -14 0 7 16 0 1 1 14 0z"/>
    <path id="svg_391" fill="#e2973a" d="m1140.4 1947.7a6.125 14 0 1 1 -12.25 0 6.125 14 0 1 1 12.25 0z"/>
    <path id="svg_390" fill="#fff" d="m1137 1936.1a1.5644 2.3467 0 1 1 -3.1293 1.49 1.5644 2.3467 0 1 1 3.1293 -1.49z"/>
    <path id="svg_389" fill="#ce5c00" d="m1133.7 1957a1.2842 2.5996 0 1 1 -2.5686 2.6 1.2842 2.5996 0 1 1 2.5686 -2.6z"/>
   </g>
   <g id="svg_381" transform="matrix(.11603 .065698 -.079802 .13646 134.2 -222.92)">
    <path id="svg_386" fill="url(#svg_408)" d="m907.79 1720.2c-2.241 0-4.217 1.0701-5.594 2.4002-1.376 1.3398-2.337 2.9498-3.125 4.75-1.575 3.5998-2.406 8.0698-2.406 12.97 0 4.9099 0.83106 9.3699 2.406 12.97 0.78802 1.8 1.749 3.4199 3.125 4.75 1.377 1.3298 3.353 2.41 5.594 2.41 2.24 0 4.217-1.0802 5.594-2.41 1.376-1.3301 2.337-2.95 3.125-4.75 1.575-3.6003 2.406-8.0603 2.406-12.97 0-4.9002-0.83099-9.3701-2.406-12.97-0.78796-1.8002-1.749-3.4102-3.125-4.75-1.377-1.3301-3.354-2.4002-5.594-2.4002z"/>
    <path id="svg_385" fill="#d2230e" d="m914.7 1741a7 16 0 1 1 -14 0 7 16 0 1 1 14 0z"/>
    <path id="svg_384" fill="#e2973a" d="m913.87 1740.1a6.125 14 0 1 1 -12.25 0 6.125 14 0 1 1 12.25 0z"/>
    <path id="svg_383" fill="#fff" d="m910.39 1728.5a1.5644 2.3467 0 1 1 -3.13 1.5 1.5644 2.3467 0 1 1 3.13 -1.5z"/>
    <path id="svg_382" fill="#ce5c00" d="m907.08 1749.4a1.2842 2.5996 0 1 1 -2.569 2.5998 1.2842 2.5996 0 1 1 2.569 -2.5998z"/>
   </g>
   <g id="svg_374" transform="matrix(.089412 -.031471 .031277 .13735 78.809 -145.39)">
    <path id="svg_379" fill="url(#svg_408)" d="m-383.55 1695.5c-2.24 0-4.22 1.075-5.59 2.407-1.38 1.3311-2.34 2.949-3.13 4.75-1.57 3.601-2.41 8.0649-2.41 12.968 0 4.9039 0.83994 9.3679 2.41 12.969 0.78998 1.801 1.75 3.4189 3.13 4.75 1.37 1.332 3.35 2.406 5.59 2.406s4.22-1.074 5.59-2.406c1.38-1.3311 2.3401-2.949 3.13-4.75 1.57-3.6011 2.4-8.0651 2.4-12.969 0-4.9031-0.82999-9.3671-2.4-12.968-0.78998-1.801-1.75-3.4189-3.13-4.75-1.37-1.332-3.3499-2.407-5.59-2.407z"/>
    <path id="svg_378" fill="#d2230e" d="m-376.64 1716.2a7 16 0 1 1 -14 0 7 16 0 1 1 14 0z"/>
    <path id="svg_377" fill="#e2973a" d="m-377.47 1715.3a6.125 14 0 1 1 -12.25 0 6.125 14 0 1 1 12.25 0z"/>
    <path id="svg_376" fill="#fff" d="m-380.94 1703.7a1.5644 2.3467 0 1 1 -3.13 1.497 1.5644 2.3467 0 1 1 3.13 -1.497z"/>
    <path id="svg_375" fill="#ce5c00" d="m-384.26 1724.6a1.2842 2.5996 0 1 1 -2.57 2.603 1.2842 2.5996 0 1 1 2.57 -2.603z"/>
   </g>
   <g id="svg_367" transform="matrix(.10384 -.053840 .055948 .14256 67.563 -119.4)">
    <path id="svg_372" fill="url(#svg_408)" d="m-418.98 1500.5c-2.24 0-4.21 1.075-5.59 2.406-1.38 1.332-2.34 2.9501-3.12 4.75-1.58 3.6011-2.41 8.0649-2.41 12.969 0 4.904 0.82996 9.368 2.41 12.969 0.78003 1.8 1.74 3.4181 3.12 4.75 1.38 1.3311 3.35 2.406 5.59 2.406 2.25 0 4.22-1.075 5.6-2.406 1.37-1.3319 2.34-2.95 3.12-4.75 1.58-3.601 2.41-8.0649 2.41-12.969 0-4.904-0.82996-9.3679-2.41-12.969-0.77997-1.7999-1.75-3.418-3.12-4.75-1.38-1.3311-3.35-2.406-5.6-2.406z"/>
    <path id="svg_371" fill="#d2230e" d="m-412.06 1521.3a7 16 0 1 1 -14 0 7 16 0 1 1 14 0z"/>
    <path id="svg_370" fill="#e2973a" d="m-412.9 1520.4a6.125 14 0 1 1 -12.25 0 6.125 14 0 1 1 12.25 0z"/>
    <path id="svg_369" fill="#fff" d="m-416.37 1508.8a1.5644 2.3467 0 1 1 -3.13 1.4961 1.5644 2.3467 0 1 1 3.13 -1.4961z"/>
    <path id="svg_368" fill="#ce5c00" d="m-419.68 1529.7a1.2842 2.5996 0 1 1 -2.57 2.6019 1.2842 2.5996 0 1 1 2.57 -2.6019z"/>
   </g>
  </g>
  <g stroke-width="2.655" fill-rule="evenodd">
   <path id="svg_365" opacity=".546" fill="url(#svg_366)" d="m132.46 70.891c-14.515 0.8068-23.467-4.6723-32.632-1.2655-4.0524 1.5064-8.5938 5.955-10.449 9.8072-2.1748 4.5156-2.6392 11.792-1.2861 16.608 1.558 5.5456 7.6966 11.092 11.253 15.66 4.2285 5.4306 8.4732 14.698 14.789 17.558 2.7165 1.2302 7.337 1.2428 9.9668-0.15799 5.3755-2.8636 8.5354-11.302 11.413-16.609 3.9212-7.23 10.196-17.117 10.449-25.308 0.13779-4.4548-1.5074-11.041-4.8225-14.078-1.9689-1.8038-5.9945-2.3639-8.6807-2.2145z"/>
   <path id="svg_363" opacity=".546" fill="url(#svg_364)" d="m107.91 67.674c-2.3549-0.022171-4.6326 0.27259-6.9241 1.1242-0.53855 0.20037-1.0858 0.45628-1.6345 0.75224 15.051 3.3046 29.988 17.413 35.241 34.297 0.91171 2.9301 1.4774 5.7752 1.7253 8.496 0.11865-0.22681 0.23804-0.46056 0.35573-0.67738 3.9212-7.2301 10.197-17.118 10.45-25.31 0.13753-4.4548-1.5052-11.036-4.8203-14.073-1.9692-1.8038-6.0013-2.3682-8.6872-2.2188-10.886 0.60522-18.641-2.3244-25.706-2.3901z"/>
   <path id="svg_361" opacity=".546" fill="url(#svg_362)" d="m133.3 69.393c-14.515 0.8068-23.468-4.6724-32.633-1.2655-4.0524 1.5064-8.5938 5.955-10.449 9.807-2.1748 4.5158-2.6392 11.792-1.2861 16.609 1.558 5.5456 7.6966 11.092 11.253 15.66 4.2285 5.4305 8.4732 14.698 14.789 17.558 2.7167 1.2302 7.337 1.2426 9.9668-0.15822 5.3755-2.8633 8.5354-11.302 11.413-16.608 3.9212-7.2301 10.196-17.117 10.449-25.308 0.13754-4.4548-1.5076-11.041-4.8227-14.078-1.9689-1.804-5.9945-2.3639-8.6804-2.2146z"/>
  </g>
  <g stroke-linejoin="round" stroke-width="4" stroke-linecap="round">
   <path id="svg_360" opacity=".546" fill="#2e3436" d="m107.94 67.825c-2.3549-0.021927-4.6329 0.27258-6.9241 1.1244-1.7517 0.6512-3.5962 1.8485-5.2743 3.3134 1.2553 0.2845 2.8097 0.37481 4.8808 0.14153 5.5872-0.62975 8.8674-1.0074 10.942-1.3105-0.013077 0.020485-0.02446 0.038849-0.037773 0.059563-2.1602 3.3544-0.43974 2.78 1.12 5.8452 3.3558-1.0601 4.9886 1.1468 6.6594-2.0849 0.91195-1.7637 1.4895-2.9615 1.8312-3.8274 0.77512 0.66334 2.4503 1.7315 3.2616 4.0433 1.2585 3.5865 1.9133 1.9946 5.3501 2.7328 1.189-2.7256 3.5531-2.8874 2.9966-5.1379 1.742 0.07695 3.7853 0.14796 6.311 0.21611 1.3979 0.037643 2.6044-0.01239 3.6626-0.13416-0.12639-0.13152-0.25426-0.259-0.38599-0.3798-1.969-1.8038-6.001-2.3608-8.6872-2.2115-10.886 0.60523-18.641-2.3241-25.706-2.3901z"/>
   <path id="svg_358" fill="url(#svg_359)" d="m118.39 68.594c0.51072-3.4314 3.249-3.9027 1.0359-6.8018-5.4775-7.179-3.74-3.5058-7.2237-3.4779-0.51094 3.4312-4.1059 1.5197 0.36492 8.6961 2.1094 3.3859 2.339 1.6114 5.8228 1.5836z"/>
  </g>
  <path id="svg_356" fill-rule="evenodd" fill="url(#svg_357)" d="m120.52 46.672l-1.5287 0.7299c2.7944 5.223-0.18161 17.863-0.18161 17.863l-8.5739 4.0431s1.1599 0.041939 2.0811 0.074577l7.8625-3.9613s2.8649-12.984 0.34069-18.749z"/>
  <g stroke-linejoin="round" stroke-width="4" stroke-linecap="round">
   <path id="svg_354" fill="url(#svg_355)" d="m151.63 64.727c-4.6413-1.6827-2.8044 1.3258-10.282 1.3632-4.5198 0.022881-7.6077-1.2631-9.8902-0.64883-4.9753 1.3391-6.7062 2.2436-10.214 3.7054 4.6414 1.6827 1.6815 2.276 18.837 2.7383 8.0942 0.21802 7.8765-3.9137 11.55-7.158z"/>
   <path id="svg_352" fill="url(#svg_353)" d="m88.484 66.788c4.4757-2.0716 4.3096 0.31618 11.763-0.28308 18.452-1.4847 13.915-0.30403 18.71 1.2274-4.4757 2.0716-4.5631-0.34643-17.037 3.4986-7.7271 2.3816-8.6407-2.9115-13.435-4.4429z"/>
   <path id="svg_350" fill="url(#svg_351)" d="m113.67 75.938c3.3557-1.0601 4.9917 1.1513 6.6626-2.0804 4.1374-8.0008 1.5512-4.8482-0.008469-7.9134-3.3558 1.0601-3.195-2.9577-7.7736 4.1527-2.1603 3.3544-0.44025 2.7759 1.1195 5.8411z"/>
   <path id="svg_348" fill="url(#svg_349)" d="m130.77 76.806c1.3323-3.0538 4.1423-2.8881 2.6642-6.0482-3.658-7.8245-6.8306-3.6973-10.267-4.4355-0.64895 1.7177-0.62692 2.0192-1.3611 2.9944-0.5182 0.68837 2.447 1.4258 3.6141 4.7514 1.2585 3.5863 1.9135 1.9996 5.3501 2.7378z"/>
   <g id="svg_341" transform="matrix(.12820 .069689 -.064932 .12138 144.41 -201.03)">
    <path id="svg_346" fill="url(#svg_408)" d="m826.83 1895.4c-2.241 0-4.217 1.0701-5.5941 2.4002-1.376 1.33-2.337 2.9501-3.1249 4.75-1.575 3.6-2.406 8.0701-2.406 12.97 0 4.9 0.83099 9.3701 2.406 12.97 0.78796 1.8 1.749 3.42 3.1249 4.75 1.377 1.3301 3.353 2.41 5.5941 2.41 2.241 0 4.217-1.08 5.594-2.41 1.376-1.33 2.337-2.95 3.125-4.75 1.575-3.6 2.406-8.0701 2.406-12.97 0-4.8998-0.83099-9.3699-2.406-12.97-0.78802-1.7999-1.749-3.42-3.125-4.75-1.377-1.3301-3.353-2.4002-5.594-2.4002z"/>
    <path id="svg_345" fill="#d2230e" d="m833.74 1916.2a7 16 0 1 1 -14 0 7 16 0 1 1 14 0z"/>
    <path id="svg_344" fill="#e2973a" d="m832.91 1915.3a6.125 14 0 1 1 -12.25 0 6.125 14 0 1 1 12.25 0z"/>
    <path id="svg_343" fill="#fff" d="m829.44 1903.7a1.5644 2.3467 0 1 1 -3.13 1.5 1.5644 2.3467 0 1 1 3.13 -1.5z"/>
    <path id="svg_342" fill="#ce5c00" d="m826.12 1924.6a1.2842 2.5996 0 1 1 -2.569 2.5998 1.2842 2.5996 0 1 1 2.569 -2.5998z"/>
   </g>
  </g>
 </g>
 <g id="g23911" fill-rule="evenodd">
  <path id="path10680" fill="#ededff" d="m95.227 119.76c0.68935-0.001144 6.0984-1.2575 8.7023-2.5595 3.4524-1.7262 5.0083-2.0476 9.2142-2.0476 3.5296 0 5.7404 1.5904 8.7024 3.0714 3.073 1.5365 5.9139-0.32669 8.7023-1.0238 3.6764-0.91909 7.0669-1.5074 9.2142 0.6399 2.6434 2.6434 0.88876 5.4087-3.5833 6.5268-5.4202 1.355-11.205 2.4458-16.893 3.5833-4.676 0.9352-7.7342 2.446-12.286 1.5357-2.4423-0.48846-4.3719-3.86-6.1428-5.6309-1.9019-1.9019-3.4334-1.3482-5.6309-4.0952z"/>
  <path id="path12200" stroke-linejoin="round" d="m101.38 117.46c6.8474-3.3169 14.53-5.157 20.144 1.6535 6.5823 1.8405 12.782-6.1387 18.993-0.42697l1.0797 0.4504 1.0997 0.3707" stroke="#c3c3d2" stroke-linecap="round" stroke-width="1.78" fill="none"/>
 </g>
</svg>
